<?xml version="1.0" encoding="utf-8" standalone="no"?>
<!DOCTYPE svg PUBLIC "-//W3C//DTD SVG 1.1//EN"
  "http://www.w3.org/Graphics/SVG/1.1/DTD/svg11.dtd">
<svg height="648pt" version="1.1" viewBox="0 0 864 648" width="864pt" xmlns="http://www.w3.org/2000/svg" xmlns:xlink="http://www.w3.org/1999/xlink">
 <metadata>
  <rdf:RDF xmlns:cc="http://creativecommons.org/ns#" xmlns:dc="http://purl.org/dc/elements/1.1/" xmlns:rdf="http://www.w3.org/1999/02/22-rdf-syntax-ns#">
   <cc:Work>
    <dc:type rdf:resource="http://purl.org/dc/dcmitype/StillImage"/>
    <dc:date>2022-10-05T09:41:43.039704</dc:date>
    <dc:format>image/svg+xml</dc:format>
    <dc:creator>
     <cc:Agent>
      <dc:title>Matplotlib v3.4.3, https://matplotlib.org/</dc:title>
     </cc:Agent>
    </dc:creator>
   </cc:Work>
  </rdf:RDF>
 </metadata>
 <defs>
  <style type="text/css">*{stroke-linecap:butt;stroke-linejoin:round;}</style>
 </defs>
 <g id="figure_1">
  <g id="patch_1">
   <path d="M 0 648 
L 864 648 
L 864 0 
L 0 0 
z
" style="fill:none;"/>
  </g>
  <g id="axes_1">
   <g id="patch_2">
    <path d="M 108 567 
L 777.6 567 
L 777.6 77.76 
L 108 77.76 
z
" style="fill:#ffffff;"/>
   </g>
   <g id="PathCollection_1">
    <defs>
     <path d="M 0 3 
C 0.795609 3 1.55874 2.683901 2.12132 2.12132 
C 2.683901 1.55874 3 0.795609 3 0 
C 3 -0.795609 2.683901 -1.55874 2.12132 -2.12132 
C 1.55874 -2.683901 0.795609 -3 0 -3 
C -0.795609 -3 -1.55874 -2.683901 -2.12132 -2.12132 
C -2.683901 -1.55874 -3 -0.795609 -3 0 
C -3 0.795609 -2.683901 1.55874 -2.12132 2.12132 
C -1.55874 2.683901 -0.795609 3 0 3 
z
" id="m7f34b33833" style="stroke:#1f77b4;stroke-opacity:0.8;"/>
    </defs>
    <g clip-path="url(#p262d3a9265)">
     <use style="fill:#1f77b4;fill-opacity:0.8;stroke:#1f77b4;stroke-opacity:0.8;" x="138.436364" xlink:href="#m7f34b33833" y="99.998182"/>
     <use style="fill:#1f77b4;fill-opacity:0.8;stroke:#1f77b4;stroke-opacity:0.8;" x="747.163636" xlink:href="#m7f34b33833" y="148.631826"/>
     <use style="fill:#1f77b4;fill-opacity:0.8;stroke:#1f77b4;stroke-opacity:0.8;" x="747.163636" xlink:href="#m7f34b33833" y="496.127731"/>
     <use style="fill:#1f77b4;fill-opacity:0.8;stroke:#1f77b4;stroke-opacity:0.8;" x="747.163636" xlink:href="#m7f34b33833" y="294.980901"/>
     <use style="fill:#1f77b4;fill-opacity:0.8;stroke:#1f77b4;stroke-opacity:0.8;" x="138.436364" xlink:href="#m7f34b33833" y="121.579914"/>
     <use style="fill:#1f77b4;fill-opacity:0.8;stroke:#1f77b4;stroke-opacity:0.8;" x="138.436364" xlink:href="#m7f34b33833" y="124.376894"/>
     <use style="fill:#1f77b4;fill-opacity:0.8;stroke:#1f77b4;stroke-opacity:0.8;" x="138.436364" xlink:href="#m7f34b33833" y="187.467041"/>
     <use style="fill:#1f77b4;fill-opacity:0.8;stroke:#1f77b4;stroke-opacity:0.8;" x="747.163636" xlink:href="#m7f34b33833" y="544.761375"/>
     <use style="fill:#1f77b4;fill-opacity:0.8;stroke:#1f77b4;stroke-opacity:0.8;" x="138.436364" xlink:href="#m7f34b33833" y="211.845753"/>
     <use style="fill:#1f77b4;fill-opacity:0.8;stroke:#1f77b4;stroke-opacity:0.8;" x="442.8" xlink:href="#m7f34b33833" y="188.584718"/>
     <use style="fill:#1f77b4;fill-opacity:0.8;stroke:#1f77b4;stroke-opacity:0.8;" x="442.8" xlink:href="#m7f34b33833" y="520.506443"/>
     <use style="fill:#1f77b4;fill-opacity:0.8;stroke:#1f77b4;stroke-opacity:0.8;" x="747.163636" xlink:href="#m7f34b33833" y="343.614545"/>
     <use style="fill:#1f77b4;fill-opacity:0.8;stroke:#1f77b4;stroke-opacity:0.8;" x="341.345455" xlink:href="#m7f34b33833" y="170.213558"/>
     <use style="fill:#1f77b4;fill-opacity:0.8;stroke:#1f77b4;stroke-opacity:0.8;" x="747.163636" xlink:href="#m7f34b33833" y="496.128174"/>
     <use style="fill:#1f77b4;fill-opacity:0.8;stroke:#1f77b4;stroke-opacity:0.8;" x="341.345455" xlink:href="#m7f34b33833" y="517.709463"/>
     <use style="fill:#1f77b4;fill-opacity:0.8;stroke:#1f77b4;stroke-opacity:0.8;" x="544.254545" xlink:href="#m7f34b33833" y="319.359613"/>
     <use style="fill:#1f77b4;fill-opacity:0.8;stroke:#1f77b4;stroke-opacity:0.8;" x="138.436364" xlink:href="#m7f34b33833" y="124.377114"/>
     <use style="fill:#1f77b4;fill-opacity:0.8;stroke:#1f77b4;stroke-opacity:0.8;" x="544.254545" xlink:href="#m7f34b33833" y="382.449761"/>
     <use style="fill:#1f77b4;fill-opacity:0.8;stroke:#1f77b4;stroke-opacity:0.8;" x="138.436364" xlink:href="#m7f34b33833" y="209.048773"/>
     <use style="fill:#1f77b4;fill-opacity:0.8;stroke:#1f77b4;stroke-opacity:0.8;" x="747.163636" xlink:href="#m7f34b33833" y="544.761818"/>
     <use style="fill:#1f77b4;fill-opacity:0.8;stroke:#1f77b4;stroke-opacity:0.8;" x="138.436364" xlink:href="#m7f34b33833" y="211.845974"/>
     <use style="fill:#1f77b4;fill-opacity:0.8;stroke:#1f77b4;stroke-opacity:0.8;" x="594.981818" xlink:href="#m7f34b33833" y="383.567438"/>
     <use style="fill:#1f77b4;fill-opacity:0.8;stroke:#1f77b4;stroke-opacity:0.8;" x="290.618182" xlink:href="#m7f34b33833" y="210.16645"/>
     <use style="fill:#1f77b4;fill-opacity:0.8;stroke:#1f77b4;stroke-opacity:0.8;" x="594.981818" xlink:href="#m7f34b33833" y="520.506886"/>
     <use style="fill:#1f77b4;fill-opacity:0.8;stroke:#1f77b4;stroke-opacity:0.8;" x="290.618182" xlink:href="#m7f34b33833" y="520.506663"/>
    </g>
   </g>
   <g id="PathCollection_2">
    <defs>
     <path d="M 0 5 
C 1.326016 5 2.597899 4.473168 3.535534 3.535534 
C 4.473168 2.597899 5 1.326016 5 -0 
C 5 -1.326016 4.473168 -2.597899 3.535534 -3.535534 
C 2.597899 -4.473168 1.326016 -5 0 -5 
C -1.326016 -5 -2.597899 -4.473168 -3.535534 -3.535534 
C -4.473168 -2.597899 -5 -1.326016 -5 0 
C -5 1.326016 -4.473168 2.597899 -3.535534 3.535534 
C -2.597899 4.473168 -1.326016 5 0 5 
z
" id="C0_0_bf9ee1da6a"/>
    </defs>
    <g clip-path="url(#p262d3a9265)">
     <use style="fill:#ffa500;stroke:#ffa500;" x="138.436364" xlink:href="#C0_0_bf9ee1da6a" y="99.998182"/>
    </g>
    <g clip-path="url(#p262d3a9265)">
     <use style="fill:#228b22;stroke:#228b22;" x="747.163636" xlink:href="#C0_0_bf9ee1da6a" y="148.631826"/>
    </g>
    <g clip-path="url(#p262d3a9265)">
     <use style="fill:#228b22;stroke:#228b22;" x="747.163636" xlink:href="#C0_0_bf9ee1da6a" y="496.127731"/>
    </g>
    <g clip-path="url(#p262d3a9265)">
     <use style="fill:#228b22;stroke:#228b22;" x="747.163636" xlink:href="#C0_0_bf9ee1da6a" y="294.980901"/>
    </g>
    <g clip-path="url(#p262d3a9265)">
     <use style="fill:#228b22;stroke:#228b22;" x="138.436364" xlink:href="#C0_0_bf9ee1da6a" y="121.579914"/>
    </g>
    <g clip-path="url(#p262d3a9265)">
     <use style="fill:#228b22;stroke:#228b22;" x="138.436364" xlink:href="#C0_0_bf9ee1da6a" y="124.376894"/>
    </g>
    <g clip-path="url(#p262d3a9265)">
     <use style="fill:#228b22;stroke:#228b22;" x="138.436364" xlink:href="#C0_0_bf9ee1da6a" y="187.467041"/>
    </g>
    <g clip-path="url(#p262d3a9265)">
     <use style="fill:#4169e1;stroke:#4169e1;" x="747.163636" xlink:href="#C0_0_bf9ee1da6a" y="544.761375"/>
    </g>
    <g clip-path="url(#p262d3a9265)">
     <use style="fill:#4169e1;stroke:#4169e1;" x="138.436364" xlink:href="#C0_0_bf9ee1da6a" y="211.845753"/>
    </g>
    <g clip-path="url(#p262d3a9265)">
     <use style="fill:#4169e1;stroke:#4169e1;" x="442.8" xlink:href="#C0_0_bf9ee1da6a" y="188.584718"/>
    </g>
    <g clip-path="url(#p262d3a9265)">
     <use style="fill:#4169e1;stroke:#4169e1;" x="442.8" xlink:href="#C0_0_bf9ee1da6a" y="520.506443"/>
    </g>
    <g clip-path="url(#p262d3a9265)">
     <use style="fill:#4169e1;stroke:#4169e1;" x="747.163636" xlink:href="#C0_0_bf9ee1da6a" y="343.614545"/>
    </g>
    <g clip-path="url(#p262d3a9265)">
     <use style="fill:#4169e1;stroke:#4169e1;" x="341.345455" xlink:href="#C0_0_bf9ee1da6a" y="170.213558"/>
    </g>
    <g clip-path="url(#p262d3a9265)">
     <use style="fill:#4169e1;stroke:#4169e1;" x="747.163636" xlink:href="#C0_0_bf9ee1da6a" y="496.128174"/>
    </g>
    <g clip-path="url(#p262d3a9265)">
     <use style="fill:#4169e1;stroke:#4169e1;" x="341.345455" xlink:href="#C0_0_bf9ee1da6a" y="517.709463"/>
    </g>
    <g clip-path="url(#p262d3a9265)">
     <use style="fill:#4169e1;stroke:#4169e1;" x="544.254545" xlink:href="#C0_0_bf9ee1da6a" y="319.359613"/>
    </g>
    <g clip-path="url(#p262d3a9265)">
     <use style="fill:#4169e1;stroke:#4169e1;" x="138.436364" xlink:href="#C0_0_bf9ee1da6a" y="124.377114"/>
    </g>
    <g clip-path="url(#p262d3a9265)">
     <use style="fill:#4169e1;stroke:#4169e1;" x="544.254545" xlink:href="#C0_0_bf9ee1da6a" y="382.449761"/>
    </g>
    <g clip-path="url(#p262d3a9265)">
     <use style="fill:#4169e1;stroke:#4169e1;" x="138.436364" xlink:href="#C0_0_bf9ee1da6a" y="209.048773"/>
    </g>
    <g clip-path="url(#p262d3a9265)">
     <use style="fill:#800080;stroke:#800080;" x="747.163636" xlink:href="#C0_0_bf9ee1da6a" y="544.761818"/>
    </g>
    <g clip-path="url(#p262d3a9265)">
     <use style="fill:#800080;stroke:#800080;" x="138.436364" xlink:href="#C0_0_bf9ee1da6a" y="211.845974"/>
    </g>
    <g clip-path="url(#p262d3a9265)">
     <use style="fill:#800080;stroke:#800080;" x="594.981818" xlink:href="#C0_0_bf9ee1da6a" y="383.567438"/>
    </g>
    <g clip-path="url(#p262d3a9265)">
     <use style="fill:#800080;stroke:#800080;" x="290.618182" xlink:href="#C0_0_bf9ee1da6a" y="210.16645"/>
    </g>
    <g clip-path="url(#p262d3a9265)">
     <use style="fill:#800080;stroke:#800080;" x="594.981818" xlink:href="#C0_0_bf9ee1da6a" y="520.506886"/>
    </g>
    <g clip-path="url(#p262d3a9265)">
     <use style="fill:#800080;stroke:#800080;" x="290.618182" xlink:href="#C0_0_bf9ee1da6a" y="520.506663"/>
    </g>
   </g>
   <g id="PolyCollection_1">
    <path clip-path="url(#p262d3a9265)" d="M 138.436364 148.129619 
L 138.436364 274.497511 
L 144.585124 275.975071 
L 150.733884 277.50281 
L 156.882645 278.636769 
L 163.031405 280.464425 
L 169.180165 282.577674 
L 175.328926 284.355299 
L 181.477686 285.497441 
L 187.626446 287.367233 
L 193.775207 289.214576 
L 199.923967 290.612969 
L 206.072727 292.004349 
L 212.221488 293.485064 
L 218.370248 294.86171 
L 224.519008 296.528103 
L 230.667769 298.355724 
L 236.816529 300.228449 
L 242.965289 302.31101 
L 249.11405 304.409738 
L 255.26281 306.500909 
L 261.41157 308.596408 
L 267.560331 310.531064 
L 273.709091 311.590507 
L 279.857851 313.008698 
L 286.006612 315.510694 
L 292.155372 317.165199 
L 298.304132 318.499385 
L 304.452893 320.329614 
L 310.601653 322.163598 
L 316.750413 324.002189 
L 322.899174 325.84078 
L 329.047934 327.215596 
L 335.196694 329.476986 
L 341.345455 331.336606 
L 347.494215 332.337683 
L 353.642975 334.530031 
L 359.791736 336.722379 
L 365.940496 338.678641 
L 372.089256 341.033156 
L 378.238017 342.795414 
L 384.386777 344.994114 
L 390.535537 347.414255 
L 396.684298 350.173593 
L 402.833058 352.692031 
L 408.981818 355.759498 
L 415.130579 358.807519 
L 421.279339 361.650755 
L 427.428099 363.736774 
L 433.57686 366.189259 
L 439.72562 368.503459 
L 445.87438 371.343915 
L 452.02314 373.801893 
L 458.171901 376.892509 
L 464.320661 380.269935 
L 470.469421 383.683113 
L 476.618182 387.131057 
L 482.766942 390.312224 
L 488.915702 393.450376 
L 495.064463 396.645283 
L 501.213223 399.147254 
L 507.361983 402.045637 
L 513.510744 405.345061 
L 519.659504 408.941797 
L 525.808264 412.448743 
L 531.957025 415.625378 
L 538.105785 418.780135 
L 544.254545 421.934521 
L 550.403306 425.091428 
L 556.552066 428.446863 
L 562.700826 431.750703 
L 568.849587 434.831313 
L 574.998347 437.505632 
L 581.147107 440.901965 
L 587.295868 444.072324 
L 593.444628 447.232755 
L 599.593388 450.39213 
L 605.742149 453.551506 
L 611.890909 456.710881 
L 618.039669 459.874565 
L 624.18843 463.049455 
L 630.33719 466.224346 
L 636.48595 469.39796 
L 642.634711 473.073684 
L 648.783471 476.84209 
L 654.932231 480.610496 
L 661.080992 484.196495 
L 667.229752 487.493057 
L 673.378512 490.781686 
L 679.527273 494.069966 
L 685.676033 497.446672 
L 691.824793 500.660628 
L 697.973554 503.949322 
L 704.122314 507.591188 
L 710.271074 511.027803 
L 716.419835 514.33831 
L 722.568595 517.639541 
L 728.717355 520.940772 
L 734.866116 524.242002 
L 741.014876 527.543233 
L 747.163636 530.844464 
L 747.163636 350.176494 
L 747.163636 350.176494 
L 741.014876 349.181845 
L 734.866116 347.955603 
L 728.717355 346.353762 
L 722.568595 344.751921 
L 716.419835 343.15008 
L 710.271074 341.710137 
L 704.122314 341.071218 
L 697.973554 340.013056 
L 691.824793 339.060486 
L 685.676033 338.3937 
L 679.527273 336.71415 
L 673.378512 335.056967 
L 667.229752 333.609484 
L 661.080992 331.731207 
L 654.932231 330.537888 
L 648.783471 329.621283 
L 642.634711 327.926302 
L 636.48595 326.009483 
L 630.33719 324.777193 
L 624.18843 322.783552 
L 618.039669 320.680782 
L 611.890909 318.578011 
L 605.742149 316.635406 
L 599.593388 314.949717 
L 593.444628 313.277725 
L 587.295868 311.697118 
L 581.147107 310.305313 
L 574.998347 308.566114 
L 568.849587 307.085498 
L 562.700826 305.609316 
L 556.552066 303.887576 
L 550.403306 302.664185 
L 544.254545 301.181432 
L 538.105785 299.70547 
L 531.957025 298.229508 
L 525.808264 296.772673 
L 519.659504 295.494635 
L 513.510744 295.357538 
L 507.361983 294.045399 
L 501.213223 291.937383 
L 495.064463 289.813619 
L 488.915702 287.707694 
L 482.766942 285.576663 
L 476.618182 283.454853 
L 470.469421 281.602639 
L 464.320661 279.773168 
L 458.171901 277.369986 
L 452.02314 275.176122 
L 445.87438 273.03254 
L 439.72562 271.235195 
L 433.57686 269.329016 
L 427.428099 267.714428 
L 421.279339 266.014128 
L 415.130579 263.825033 
L 408.981818 262.080535 
L 402.833058 259.809666 
L 396.684298 257.558606 
L 390.535537 255.787171 
L 384.386777 253.548623 
L 378.238017 250.74167 
L 372.089256 248.445368 
L 365.940496 245.918941 
L 359.791736 243.231928 
L 353.642975 241.360478 
L 347.494215 239.367745 
L 341.345455 237.190206 
L 335.196694 234.824774 
L 329.047934 232.480848 
L 322.899174 230.695205 
L 316.750413 228.652837 
L 310.601653 226.099143 
L 304.452893 223.643378 
L 298.304132 221.802383 
L 292.155372 218.996334 
L 286.006612 216.508874 
L 279.857851 213.903615 
L 273.709091 211.536938 
L 267.560331 208.998992 
L 261.41157 206.063935 
L 255.26281 203.11605 
L 249.11405 199.964827 
L 242.965289 197.918226 
L 236.816529 195.819243 
L 230.667769 193.730598 
L 224.519008 191.314517 
L 218.370248 188.502488 
L 212.221488 185.647546 
L 206.072727 182.179938 
L 199.923967 179.723723 
L 193.775207 176.552264 
L 187.626446 173.40834 
L 181.477686 170.748104 
L 175.328926 167.669938 
L 169.180165 164.618082 
L 163.031405 160.951605 
L 156.882645 158.279661 
L 150.733884 155.330938 
L 144.585124 151.795713 
L 138.436364 148.129619 
z
" style="fill:#1f77b4;fill-opacity:0.15;"/>
   </g>
   <g id="matplotlib.axis_1">
    <g id="xtick_1">
     <g id="line2d_1">
      <defs>
       <path d="M 0 0 
L 0 -10 
" id="mb6f2b6708c" style="stroke:#000000;stroke-width:2;"/>
      </defs>
      <g>
       <use style="stroke:#000000;stroke-width:2;" x="138.436364" xlink:href="#mb6f2b6708c" y="567"/>
      </g>
     </g>
     <g id="line2d_2">
      <defs>
       <path d="M 0 0 
L 0 10 
" id="m00a5c3a2e2" style="stroke:#000000;stroke-width:2;"/>
      </defs>
      <g>
       <use style="stroke:#000000;stroke-width:2;" x="138.436364" xlink:href="#m00a5c3a2e2" y="77.76"/>
      </g>
     </g>
     <g id="text_1">
      <!-- 0.0 -->
      <g transform="translate(124.123551 584.177187)scale(0.18 -0.18)">
       <defs>
        <path d="M 2034 4250 
Q 1547 4250 1301 3770 
Q 1056 3291 1056 2328 
Q 1056 1369 1301 889 
Q 1547 409 2034 409 
Q 2525 409 2770 889 
Q 3016 1369 3016 2328 
Q 3016 3291 2770 3770 
Q 2525 4250 2034 4250 
z
M 2034 4750 
Q 2819 4750 3233 4129 
Q 3647 3509 3647 2328 
Q 3647 1150 3233 529 
Q 2819 -91 2034 -91 
Q 1250 -91 836 529 
Q 422 1150 422 2328 
Q 422 3509 836 4129 
Q 1250 4750 2034 4750 
z
" id="DejaVuSans-30" transform="scale(0.015625)"/>
        <path d="M 684 794 
L 1344 794 
L 1344 0 
L 684 0 
L 684 794 
z
" id="DejaVuSans-2e" transform="scale(0.015625)"/>
       </defs>
       <use xlink:href="#DejaVuSans-30"/>
       <use x="63.623047" xlink:href="#DejaVuSans-2e"/>
       <use x="95.410156" xlink:href="#DejaVuSans-30"/>
      </g>
     </g>
    </g>
    <g id="xtick_2">
     <g id="line2d_3">
      <g>
       <use style="stroke:#000000;stroke-width:2;" x="260.181818" xlink:href="#mb6f2b6708c" y="567"/>
      </g>
     </g>
     <g id="line2d_4">
      <g>
       <use style="stroke:#000000;stroke-width:2;" x="260.181818" xlink:href="#m00a5c3a2e2" y="77.76"/>
      </g>
     </g>
     <g id="text_2">
      <!-- 0.2 -->
      <g transform="translate(245.869006 584.177187)scale(0.18 -0.18)">
       <defs>
        <path d="M 1228 531 
L 3431 531 
L 3431 0 
L 469 0 
L 469 531 
Q 828 903 1448 1529 
Q 2069 2156 2228 2338 
Q 2531 2678 2651 2914 
Q 2772 3150 2772 3378 
Q 2772 3750 2511 3984 
Q 2250 4219 1831 4219 
Q 1534 4219 1204 4116 
Q 875 4013 500 3803 
L 500 4441 
Q 881 4594 1212 4672 
Q 1544 4750 1819 4750 
Q 2544 4750 2975 4387 
Q 3406 4025 3406 3419 
Q 3406 3131 3298 2873 
Q 3191 2616 2906 2266 
Q 2828 2175 2409 1742 
Q 1991 1309 1228 531 
z
" id="DejaVuSans-32" transform="scale(0.015625)"/>
       </defs>
       <use xlink:href="#DejaVuSans-30"/>
       <use x="63.623047" xlink:href="#DejaVuSans-2e"/>
       <use x="95.410156" xlink:href="#DejaVuSans-32"/>
      </g>
     </g>
    </g>
    <g id="xtick_3">
     <g id="line2d_5">
      <g>
       <use style="stroke:#000000;stroke-width:2;" x="381.927273" xlink:href="#mb6f2b6708c" y="567"/>
      </g>
     </g>
     <g id="line2d_6">
      <g>
       <use style="stroke:#000000;stroke-width:2;" x="381.927273" xlink:href="#m00a5c3a2e2" y="77.76"/>
      </g>
     </g>
     <g id="text_3">
      <!-- 0.4 -->
      <g transform="translate(367.61446 584.177187)scale(0.18 -0.18)">
       <defs>
        <path d="M 2419 4116 
L 825 1625 
L 2419 1625 
L 2419 4116 
z
M 2253 4666 
L 3047 4666 
L 3047 1625 
L 3713 1625 
L 3713 1100 
L 3047 1100 
L 3047 0 
L 2419 0 
L 2419 1100 
L 313 1100 
L 313 1709 
L 2253 4666 
z
" id="DejaVuSans-34" transform="scale(0.015625)"/>
       </defs>
       <use xlink:href="#DejaVuSans-30"/>
       <use x="63.623047" xlink:href="#DejaVuSans-2e"/>
       <use x="95.410156" xlink:href="#DejaVuSans-34"/>
      </g>
     </g>
    </g>
    <g id="xtick_4">
     <g id="line2d_7">
      <g>
       <use style="stroke:#000000;stroke-width:2;" x="503.672727" xlink:href="#mb6f2b6708c" y="567"/>
      </g>
     </g>
     <g id="line2d_8">
      <g>
       <use style="stroke:#000000;stroke-width:2;" x="503.672727" xlink:href="#m00a5c3a2e2" y="77.76"/>
      </g>
     </g>
     <g id="text_4">
      <!-- 0.6 -->
      <g transform="translate(489.359915 584.177187)scale(0.18 -0.18)">
       <defs>
        <path d="M 2113 2584 
Q 1688 2584 1439 2293 
Q 1191 2003 1191 1497 
Q 1191 994 1439 701 
Q 1688 409 2113 409 
Q 2538 409 2786 701 
Q 3034 994 3034 1497 
Q 3034 2003 2786 2293 
Q 2538 2584 2113 2584 
z
M 3366 4563 
L 3366 3988 
Q 3128 4100 2886 4159 
Q 2644 4219 2406 4219 
Q 1781 4219 1451 3797 
Q 1122 3375 1075 2522 
Q 1259 2794 1537 2939 
Q 1816 3084 2150 3084 
Q 2853 3084 3261 2657 
Q 3669 2231 3669 1497 
Q 3669 778 3244 343 
Q 2819 -91 2113 -91 
Q 1303 -91 875 529 
Q 447 1150 447 2328 
Q 447 3434 972 4092 
Q 1497 4750 2381 4750 
Q 2619 4750 2861 4703 
Q 3103 4656 3366 4563 
z
" id="DejaVuSans-36" transform="scale(0.015625)"/>
       </defs>
       <use xlink:href="#DejaVuSans-30"/>
       <use x="63.623047" xlink:href="#DejaVuSans-2e"/>
       <use x="95.410156" xlink:href="#DejaVuSans-36"/>
      </g>
     </g>
    </g>
    <g id="xtick_5">
     <g id="line2d_9">
      <g>
       <use style="stroke:#000000;stroke-width:2;" x="625.418182" xlink:href="#mb6f2b6708c" y="567"/>
      </g>
     </g>
     <g id="line2d_10">
      <g>
       <use style="stroke:#000000;stroke-width:2;" x="625.418182" xlink:href="#m00a5c3a2e2" y="77.76"/>
      </g>
     </g>
     <g id="text_5">
      <!-- 0.8 -->
      <g transform="translate(611.105369 584.177187)scale(0.18 -0.18)">
       <defs>
        <path d="M 2034 2216 
Q 1584 2216 1326 1975 
Q 1069 1734 1069 1313 
Q 1069 891 1326 650 
Q 1584 409 2034 409 
Q 2484 409 2743 651 
Q 3003 894 3003 1313 
Q 3003 1734 2745 1975 
Q 2488 2216 2034 2216 
z
M 1403 2484 
Q 997 2584 770 2862 
Q 544 3141 544 3541 
Q 544 4100 942 4425 
Q 1341 4750 2034 4750 
Q 2731 4750 3128 4425 
Q 3525 4100 3525 3541 
Q 3525 3141 3298 2862 
Q 3072 2584 2669 2484 
Q 3125 2378 3379 2068 
Q 3634 1759 3634 1313 
Q 3634 634 3220 271 
Q 2806 -91 2034 -91 
Q 1263 -91 848 271 
Q 434 634 434 1313 
Q 434 1759 690 2068 
Q 947 2378 1403 2484 
z
M 1172 3481 
Q 1172 3119 1398 2916 
Q 1625 2713 2034 2713 
Q 2441 2713 2670 2916 
Q 2900 3119 2900 3481 
Q 2900 3844 2670 4047 
Q 2441 4250 2034 4250 
Q 1625 4250 1398 4047 
Q 1172 3844 1172 3481 
z
" id="DejaVuSans-38" transform="scale(0.015625)"/>
       </defs>
       <use xlink:href="#DejaVuSans-30"/>
       <use x="63.623047" xlink:href="#DejaVuSans-2e"/>
       <use x="95.410156" xlink:href="#DejaVuSans-38"/>
      </g>
     </g>
    </g>
    <g id="xtick_6">
     <g id="line2d_11">
      <g>
       <use style="stroke:#000000;stroke-width:2;" x="747.163636" xlink:href="#mb6f2b6708c" y="567"/>
      </g>
     </g>
     <g id="line2d_12">
      <g>
       <use style="stroke:#000000;stroke-width:2;" x="747.163636" xlink:href="#m00a5c3a2e2" y="77.76"/>
      </g>
     </g>
     <g id="text_6">
      <!-- 1.0 -->
      <g transform="translate(732.850824 584.177187)scale(0.18 -0.18)">
       <defs>
        <path d="M 794 531 
L 1825 531 
L 1825 4091 
L 703 3866 
L 703 4441 
L 1819 4666 
L 2450 4666 
L 2450 531 
L 3481 531 
L 3481 0 
L 794 0 
L 794 531 
z
" id="DejaVuSans-31" transform="scale(0.015625)"/>
       </defs>
       <use xlink:href="#DejaVuSans-31"/>
       <use x="63.623047" xlink:href="#DejaVuSans-2e"/>
       <use x="95.410156" xlink:href="#DejaVuSans-30"/>
      </g>
     </g>
    </g>
    <g id="text_7">
     <!-- Varsortability -->
     <g transform="translate(383.117344 605.597813)scale(0.18 -0.18)">
      <defs>
       <path d="M 1831 0 
L 50 4666 
L 709 4666 
L 2188 738 
L 3669 4666 
L 4325 4666 
L 2547 0 
L 1831 0 
z
" id="DejaVuSans-56" transform="scale(0.015625)"/>
       <path d="M 2194 1759 
Q 1497 1759 1228 1600 
Q 959 1441 959 1056 
Q 959 750 1161 570 
Q 1363 391 1709 391 
Q 2188 391 2477 730 
Q 2766 1069 2766 1631 
L 2766 1759 
L 2194 1759 
z
M 3341 1997 
L 3341 0 
L 2766 0 
L 2766 531 
Q 2569 213 2275 61 
Q 1981 -91 1556 -91 
Q 1019 -91 701 211 
Q 384 513 384 1019 
Q 384 1609 779 1909 
Q 1175 2209 1959 2209 
L 2766 2209 
L 2766 2266 
Q 2766 2663 2505 2880 
Q 2244 3097 1772 3097 
Q 1472 3097 1187 3025 
Q 903 2953 641 2809 
L 641 3341 
Q 956 3463 1253 3523 
Q 1550 3584 1831 3584 
Q 2591 3584 2966 3190 
Q 3341 2797 3341 1997 
z
" id="DejaVuSans-61" transform="scale(0.015625)"/>
       <path d="M 2631 2963 
Q 2534 3019 2420 3045 
Q 2306 3072 2169 3072 
Q 1681 3072 1420 2755 
Q 1159 2438 1159 1844 
L 1159 0 
L 581 0 
L 581 3500 
L 1159 3500 
L 1159 2956 
Q 1341 3275 1631 3429 
Q 1922 3584 2338 3584 
Q 2397 3584 2469 3576 
Q 2541 3569 2628 3553 
L 2631 2963 
z
" id="DejaVuSans-72" transform="scale(0.015625)"/>
       <path d="M 2834 3397 
L 2834 2853 
Q 2591 2978 2328 3040 
Q 2066 3103 1784 3103 
Q 1356 3103 1142 2972 
Q 928 2841 928 2578 
Q 928 2378 1081 2264 
Q 1234 2150 1697 2047 
L 1894 2003 
Q 2506 1872 2764 1633 
Q 3022 1394 3022 966 
Q 3022 478 2636 193 
Q 2250 -91 1575 -91 
Q 1294 -91 989 -36 
Q 684 19 347 128 
L 347 722 
Q 666 556 975 473 
Q 1284 391 1588 391 
Q 1994 391 2212 530 
Q 2431 669 2431 922 
Q 2431 1156 2273 1281 
Q 2116 1406 1581 1522 
L 1381 1569 
Q 847 1681 609 1914 
Q 372 2147 372 2553 
Q 372 3047 722 3315 
Q 1072 3584 1716 3584 
Q 2034 3584 2315 3537 
Q 2597 3491 2834 3397 
z
" id="DejaVuSans-73" transform="scale(0.015625)"/>
       <path d="M 1959 3097 
Q 1497 3097 1228 2736 
Q 959 2375 959 1747 
Q 959 1119 1226 758 
Q 1494 397 1959 397 
Q 2419 397 2687 759 
Q 2956 1122 2956 1747 
Q 2956 2369 2687 2733 
Q 2419 3097 1959 3097 
z
M 1959 3584 
Q 2709 3584 3137 3096 
Q 3566 2609 3566 1747 
Q 3566 888 3137 398 
Q 2709 -91 1959 -91 
Q 1206 -91 779 398 
Q 353 888 353 1747 
Q 353 2609 779 3096 
Q 1206 3584 1959 3584 
z
" id="DejaVuSans-6f" transform="scale(0.015625)"/>
       <path d="M 1172 4494 
L 1172 3500 
L 2356 3500 
L 2356 3053 
L 1172 3053 
L 1172 1153 
Q 1172 725 1289 603 
Q 1406 481 1766 481 
L 2356 481 
L 2356 0 
L 1766 0 
Q 1100 0 847 248 
Q 594 497 594 1153 
L 594 3053 
L 172 3053 
L 172 3500 
L 594 3500 
L 594 4494 
L 1172 4494 
z
" id="DejaVuSans-74" transform="scale(0.015625)"/>
       <path d="M 3116 1747 
Q 3116 2381 2855 2742 
Q 2594 3103 2138 3103 
Q 1681 3103 1420 2742 
Q 1159 2381 1159 1747 
Q 1159 1113 1420 752 
Q 1681 391 2138 391 
Q 2594 391 2855 752 
Q 3116 1113 3116 1747 
z
M 1159 2969 
Q 1341 3281 1617 3432 
Q 1894 3584 2278 3584 
Q 2916 3584 3314 3078 
Q 3713 2572 3713 1747 
Q 3713 922 3314 415 
Q 2916 -91 2278 -91 
Q 1894 -91 1617 61 
Q 1341 213 1159 525 
L 1159 0 
L 581 0 
L 581 4863 
L 1159 4863 
L 1159 2969 
z
" id="DejaVuSans-62" transform="scale(0.015625)"/>
       <path d="M 603 3500 
L 1178 3500 
L 1178 0 
L 603 0 
L 603 3500 
z
M 603 4863 
L 1178 4863 
L 1178 4134 
L 603 4134 
L 603 4863 
z
" id="DejaVuSans-69" transform="scale(0.015625)"/>
       <path d="M 603 4863 
L 1178 4863 
L 1178 0 
L 603 0 
L 603 4863 
z
" id="DejaVuSans-6c" transform="scale(0.015625)"/>
       <path d="M 2059 -325 
Q 1816 -950 1584 -1140 
Q 1353 -1331 966 -1331 
L 506 -1331 
L 506 -850 
L 844 -850 
Q 1081 -850 1212 -737 
Q 1344 -625 1503 -206 
L 1606 56 
L 191 3500 
L 800 3500 
L 1894 763 
L 2988 3500 
L 3597 3500 
L 2059 -325 
z
" id="DejaVuSans-79" transform="scale(0.015625)"/>
      </defs>
      <use xlink:href="#DejaVuSans-56"/>
      <use x="60.658203" xlink:href="#DejaVuSans-61"/>
      <use x="121.9375" xlink:href="#DejaVuSans-72"/>
      <use x="163.050781" xlink:href="#DejaVuSans-73"/>
      <use x="215.150391" xlink:href="#DejaVuSans-6f"/>
      <use x="276.332031" xlink:href="#DejaVuSans-72"/>
      <use x="317.445312" xlink:href="#DejaVuSans-74"/>
      <use x="356.654297" xlink:href="#DejaVuSans-61"/>
      <use x="417.933594" xlink:href="#DejaVuSans-62"/>
      <use x="481.410156" xlink:href="#DejaVuSans-69"/>
      <use x="509.193359" xlink:href="#DejaVuSans-6c"/>
      <use x="536.976562" xlink:href="#DejaVuSans-69"/>
      <use x="564.759766" xlink:href="#DejaVuSans-74"/>
      <use x="603.96875" xlink:href="#DejaVuSans-79"/>
     </g>
    </g>
   </g>
   <g id="matplotlib.axis_2">
    <g id="ytick_1">
     <g id="line2d_13">
      <defs>
       <path d="M 0 0 
L 10 0 
" id="m40daf56002" style="stroke:#000000;stroke-width:2;"/>
      </defs>
      <g>
       <use style="stroke:#000000;stroke-width:2;" x="108" xlink:href="#m40daf56002" y="491.891203"/>
      </g>
     </g>
     <g id="line2d_14">
      <defs>
       <path d="M 0 0 
L -10 0 
" id="mab9efed0b3" style="stroke:#000000;stroke-width:2;"/>
      </defs>
      <g>
       <use style="stroke:#000000;stroke-width:2;" x="777.6" xlink:href="#mab9efed0b3" y="491.891203"/>
      </g>
     </g>
     <g id="text_8">
      <!-- 4 -->
      <g transform="translate(93.0475 498.729796)scale(0.18 -0.18)">
       <use xlink:href="#DejaVuSans-34"/>
      </g>
     </g>
    </g>
    <g id="ytick_2">
     <g id="line2d_15">
      <g>
       <use style="stroke:#000000;stroke-width:2;" x="108" xlink:href="#m40daf56002" y="390.575989"/>
      </g>
     </g>
     <g id="line2d_16">
      <g>
       <use style="stroke:#000000;stroke-width:2;" x="777.6" xlink:href="#mab9efed0b3" y="390.575989"/>
      </g>
     </g>
     <g id="text_9">
      <!-- 6 -->
      <g transform="translate(93.0475 397.414583)scale(0.18 -0.18)">
       <use xlink:href="#DejaVuSans-36"/>
      </g>
     </g>
    </g>
    <g id="ytick_3">
     <g id="line2d_17">
      <g>
       <use style="stroke:#000000;stroke-width:2;" x="108" xlink:href="#m40daf56002" y="289.260776"/>
      </g>
     </g>
     <g id="line2d_18">
      <g>
       <use style="stroke:#000000;stroke-width:2;" x="777.6" xlink:href="#mab9efed0b3" y="289.260776"/>
      </g>
     </g>
     <g id="text_10">
      <!-- 8 -->
      <g transform="translate(93.0475 296.09937)scale(0.18 -0.18)">
       <use xlink:href="#DejaVuSans-38"/>
      </g>
     </g>
    </g>
    <g id="ytick_4">
     <g id="line2d_19">
      <g>
       <use style="stroke:#000000;stroke-width:2;" x="108" xlink:href="#m40daf56002" y="187.945563"/>
      </g>
     </g>
     <g id="line2d_20">
      <g>
       <use style="stroke:#000000;stroke-width:2;" x="777.6" xlink:href="#mab9efed0b3" y="187.945563"/>
      </g>
     </g>
     <g id="text_11">
      <!-- 10 -->
      <g transform="translate(81.595 194.784157)scale(0.18 -0.18)">
       <use xlink:href="#DejaVuSans-31"/>
       <use x="63.623047" xlink:href="#DejaVuSans-30"/>
      </g>
     </g>
    </g>
    <g id="ytick_5">
     <g id="line2d_21">
      <g>
       <use style="stroke:#000000;stroke-width:2;" x="108" xlink:href="#m40daf56002" y="86.63035"/>
      </g>
     </g>
     <g id="line2d_22">
      <g>
       <use style="stroke:#000000;stroke-width:2;" x="777.6" xlink:href="#mab9efed0b3" y="86.63035"/>
      </g>
     </g>
     <g id="text_12">
      <!-- 12 -->
      <g transform="translate(81.595 93.468943)scale(0.18 -0.18)">
       <use xlink:href="#DejaVuSans-31"/>
       <use x="63.623047" xlink:href="#DejaVuSans-32"/>
      </g>
     </g>
    </g>
    <g id="text_13">
     <!-- Model-MSE -->
     <g transform="translate(73.851562 371.816719)rotate(-90)scale(0.18 -0.18)">
      <defs>
       <path d="M 628 4666 
L 1569 4666 
L 2759 1491 
L 3956 4666 
L 4897 4666 
L 4897 0 
L 4281 0 
L 4281 4097 
L 3078 897 
L 2444 897 
L 1241 4097 
L 1241 0 
L 628 0 
L 628 4666 
z
" id="DejaVuSans-4d" transform="scale(0.015625)"/>
       <path d="M 2906 2969 
L 2906 4863 
L 3481 4863 
L 3481 0 
L 2906 0 
L 2906 525 
Q 2725 213 2448 61 
Q 2172 -91 1784 -91 
Q 1150 -91 751 415 
Q 353 922 353 1747 
Q 353 2572 751 3078 
Q 1150 3584 1784 3584 
Q 2172 3584 2448 3432 
Q 2725 3281 2906 2969 
z
M 947 1747 
Q 947 1113 1208 752 
Q 1469 391 1925 391 
Q 2381 391 2643 752 
Q 2906 1113 2906 1747 
Q 2906 2381 2643 2742 
Q 2381 3103 1925 3103 
Q 1469 3103 1208 2742 
Q 947 2381 947 1747 
z
" id="DejaVuSans-64" transform="scale(0.015625)"/>
       <path d="M 3597 1894 
L 3597 1613 
L 953 1613 
Q 991 1019 1311 708 
Q 1631 397 2203 397 
Q 2534 397 2845 478 
Q 3156 559 3463 722 
L 3463 178 
Q 3153 47 2828 -22 
Q 2503 -91 2169 -91 
Q 1331 -91 842 396 
Q 353 884 353 1716 
Q 353 2575 817 3079 
Q 1281 3584 2069 3584 
Q 2775 3584 3186 3129 
Q 3597 2675 3597 1894 
z
M 3022 2063 
Q 3016 2534 2758 2815 
Q 2500 3097 2075 3097 
Q 1594 3097 1305 2825 
Q 1016 2553 972 2059 
L 3022 2063 
z
" id="DejaVuSans-65" transform="scale(0.015625)"/>
       <path d="M 313 2009 
L 1997 2009 
L 1997 1497 
L 313 1497 
L 313 2009 
z
" id="DejaVuSans-2d" transform="scale(0.015625)"/>
       <path d="M 3425 4513 
L 3425 3897 
Q 3066 4069 2747 4153 
Q 2428 4238 2131 4238 
Q 1616 4238 1336 4038 
Q 1056 3838 1056 3469 
Q 1056 3159 1242 3001 
Q 1428 2844 1947 2747 
L 2328 2669 
Q 3034 2534 3370 2195 
Q 3706 1856 3706 1288 
Q 3706 609 3251 259 
Q 2797 -91 1919 -91 
Q 1588 -91 1214 -16 
Q 841 59 441 206 
L 441 856 
Q 825 641 1194 531 
Q 1563 422 1919 422 
Q 2459 422 2753 634 
Q 3047 847 3047 1241 
Q 3047 1584 2836 1778 
Q 2625 1972 2144 2069 
L 1759 2144 
Q 1053 2284 737 2584 
Q 422 2884 422 3419 
Q 422 4038 858 4394 
Q 1294 4750 2059 4750 
Q 2388 4750 2728 4690 
Q 3069 4631 3425 4513 
z
" id="DejaVuSans-53" transform="scale(0.015625)"/>
       <path d="M 628 4666 
L 3578 4666 
L 3578 4134 
L 1259 4134 
L 1259 2753 
L 3481 2753 
L 3481 2222 
L 1259 2222 
L 1259 531 
L 3634 531 
L 3634 0 
L 628 0 
L 628 4666 
z
" id="DejaVuSans-45" transform="scale(0.015625)"/>
      </defs>
      <use xlink:href="#DejaVuSans-4d"/>
      <use x="86.279297" xlink:href="#DejaVuSans-6f"/>
      <use x="147.460938" xlink:href="#DejaVuSans-64"/>
      <use x="210.9375" xlink:href="#DejaVuSans-65"/>
      <use x="272.460938" xlink:href="#DejaVuSans-6c"/>
      <use x="300.244141" xlink:href="#DejaVuSans-2d"/>
      <use x="336.328125" xlink:href="#DejaVuSans-4d"/>
      <use x="422.607422" xlink:href="#DejaVuSans-53"/>
      <use x="486.083984" xlink:href="#DejaVuSans-45"/>
     </g>
    </g>
   </g>
   <g id="line2d_23">
    <path clip-path="url(#p262d3a9265)" d="M 138.436364 199.530562 
L 144.585124 201.975724 
L 150.733884 204.420887 
L 156.882645 206.866049 
L 163.031405 209.311212 
L 169.180165 211.756374 
L 175.328926 214.201536 
L 181.477686 216.646699 
L 187.626446 219.091861 
L 193.775207 221.537024 
L 199.923967 223.982186 
L 206.072727 226.427349 
L 212.221488 228.872511 
L 218.370248 231.317673 
L 224.519008 233.762836 
L 230.667769 236.207998 
L 236.816529 238.653161 
L 242.965289 241.098323 
L 249.11405 243.543486 
L 255.26281 245.988648 
L 261.41157 248.43381 
L 267.560331 250.878973 
L 273.709091 253.324135 
L 279.857851 255.769298 
L 286.006612 258.21446 
L 292.155372 260.659623 
L 298.304132 263.104785 
L 304.452893 265.549947 
L 310.601653 267.99511 
L 316.750413 270.440272 
L 322.899174 272.885435 
L 329.047934 275.330597 
L 335.196694 277.77576 
L 341.345455 280.220922 
L 347.494215 282.666084 
L 353.642975 285.111247 
L 359.791736 287.556409 
L 365.940496 290.001572 
L 372.089256 292.446734 
L 378.238017 294.891897 
L 384.386777 297.337059 
L 390.535537 299.782221 
L 396.684298 302.227384 
L 402.833058 304.672546 
L 408.981818 307.117709 
L 415.130579 309.562871 
L 421.279339 312.008034 
L 427.428099 314.453196 
L 433.57686 316.898358 
L 439.72562 319.343521 
L 445.87438 321.788683 
L 452.02314 324.233846 
L 458.171901 326.679008 
L 464.320661 329.124171 
L 470.469421 331.569333 
L 476.618182 334.014495 
L 482.766942 336.459658 
L 488.915702 338.90482 
L 495.064463 341.349983 
L 501.213223 343.795145 
L 507.361983 346.240308 
L 513.510744 348.68547 
L 519.659504 351.130632 
L 525.808264 353.575795 
L 531.957025 356.020957 
L 538.105785 358.46612 
L 544.254545 360.911282 
L 550.403306 363.356445 
L 556.552066 365.801607 
L 562.700826 368.246769 
L 568.849587 370.691932 
L 574.998347 373.137094 
L 581.147107 375.582257 
L 587.295868 378.027419 
L 593.444628 380.472582 
L 599.593388 382.917744 
L 605.742149 385.362906 
L 611.890909 387.808069 
L 618.039669 390.253231 
L 624.18843 392.698394 
L 630.33719 395.143556 
L 636.48595 397.588719 
L 642.634711 400.033881 
L 648.783471 402.479043 
L 654.932231 404.924206 
L 661.080992 407.369368 
L 667.229752 409.814531 
L 673.378512 412.259693 
L 679.527273 414.704855 
L 685.676033 417.150018 
L 691.824793 419.59518 
L 697.973554 422.040343 
L 704.122314 424.485505 
L 710.271074 426.930668 
L 716.419835 429.37583 
L 722.568595 431.820992 
L 728.717355 434.266155 
L 734.866116 436.711317 
L 741.014876 439.15648 
L 747.163636 441.601642 
" style="fill:none;stroke:#1f77b4;stroke-linecap:square;stroke-width:2.25;"/>
   </g>
   <g id="patch_3">
    <path d="M 108 567 
L 108 77.76 
" style="fill:none;stroke:#000000;stroke-linecap:square;stroke-linejoin:miter;stroke-width:2;"/>
   </g>
   <g id="patch_4">
    <path d="M 777.6 567 
L 777.6 77.76 
" style="fill:none;stroke:#000000;stroke-linecap:square;stroke-linejoin:miter;stroke-width:2;"/>
   </g>
   <g id="patch_5">
    <path d="M 108 567 
L 777.6 567 
" style="fill:none;stroke:#000000;stroke-linecap:square;stroke-linejoin:miter;stroke-width:2;"/>
   </g>
   <g id="patch_6">
    <path d="M 108 77.76 
L 777.6 77.76 
" style="fill:none;stroke:#000000;stroke-linecap:square;stroke-linejoin:miter;stroke-width:2;"/>
   </g>
   <g id="text_14">
    <!-- Correlation between varsortability and Model-MSE -->
    <g transform="translate(171.714938 71.76)scale(0.216 -0.216)">
     <defs>
      <path d="M 4122 4306 
L 4122 3641 
Q 3803 3938 3442 4084 
Q 3081 4231 2675 4231 
Q 1875 4231 1450 3742 
Q 1025 3253 1025 2328 
Q 1025 1406 1450 917 
Q 1875 428 2675 428 
Q 3081 428 3442 575 
Q 3803 722 4122 1019 
L 4122 359 
Q 3791 134 3420 21 
Q 3050 -91 2638 -91 
Q 1578 -91 968 557 
Q 359 1206 359 2328 
Q 359 3453 968 4101 
Q 1578 4750 2638 4750 
Q 3056 4750 3426 4639 
Q 3797 4528 4122 4306 
z
" id="DejaVuSans-43" transform="scale(0.015625)"/>
      <path d="M 3513 2113 
L 3513 0 
L 2938 0 
L 2938 2094 
Q 2938 2591 2744 2837 
Q 2550 3084 2163 3084 
Q 1697 3084 1428 2787 
Q 1159 2491 1159 1978 
L 1159 0 
L 581 0 
L 581 3500 
L 1159 3500 
L 1159 2956 
Q 1366 3272 1645 3428 
Q 1925 3584 2291 3584 
Q 2894 3584 3203 3211 
Q 3513 2838 3513 2113 
z
" id="DejaVuSans-6e" transform="scale(0.015625)"/>
      <path id="DejaVuSans-20" transform="scale(0.015625)"/>
      <path d="M 269 3500 
L 844 3500 
L 1563 769 
L 2278 3500 
L 2956 3500 
L 3675 769 
L 4391 3500 
L 4966 3500 
L 4050 0 
L 3372 0 
L 2619 2869 
L 1863 0 
L 1184 0 
L 269 3500 
z
" id="DejaVuSans-77" transform="scale(0.015625)"/>
      <path d="M 191 3500 
L 800 3500 
L 1894 563 
L 2988 3500 
L 3597 3500 
L 2284 0 
L 1503 0 
L 191 3500 
z
" id="DejaVuSans-76" transform="scale(0.015625)"/>
     </defs>
     <use xlink:href="#DejaVuSans-43"/>
     <use x="69.824219" xlink:href="#DejaVuSans-6f"/>
     <use x="131.005859" xlink:href="#DejaVuSans-72"/>
     <use x="170.369141" xlink:href="#DejaVuSans-72"/>
     <use x="209.232422" xlink:href="#DejaVuSans-65"/>
     <use x="270.755859" xlink:href="#DejaVuSans-6c"/>
     <use x="298.539062" xlink:href="#DejaVuSans-61"/>
     <use x="359.818359" xlink:href="#DejaVuSans-74"/>
     <use x="399.027344" xlink:href="#DejaVuSans-69"/>
     <use x="426.810547" xlink:href="#DejaVuSans-6f"/>
     <use x="487.992188" xlink:href="#DejaVuSans-6e"/>
     <use x="551.371094" xlink:href="#DejaVuSans-20"/>
     <use x="583.158203" xlink:href="#DejaVuSans-62"/>
     <use x="646.634766" xlink:href="#DejaVuSans-65"/>
     <use x="708.158203" xlink:href="#DejaVuSans-74"/>
     <use x="747.367188" xlink:href="#DejaVuSans-77"/>
     <use x="829.154297" xlink:href="#DejaVuSans-65"/>
     <use x="890.677734" xlink:href="#DejaVuSans-65"/>
     <use x="952.201172" xlink:href="#DejaVuSans-6e"/>
     <use x="1015.580078" xlink:href="#DejaVuSans-20"/>
     <use x="1047.367188" xlink:href="#DejaVuSans-76"/>
     <use x="1106.546875" xlink:href="#DejaVuSans-61"/>
     <use x="1167.826172" xlink:href="#DejaVuSans-72"/>
     <use x="1208.939453" xlink:href="#DejaVuSans-73"/>
     <use x="1261.039062" xlink:href="#DejaVuSans-6f"/>
     <use x="1322.220703" xlink:href="#DejaVuSans-72"/>
     <use x="1363.333984" xlink:href="#DejaVuSans-74"/>
     <use x="1402.542969" xlink:href="#DejaVuSans-61"/>
     <use x="1463.822266" xlink:href="#DejaVuSans-62"/>
     <use x="1527.298828" xlink:href="#DejaVuSans-69"/>
     <use x="1555.082031" xlink:href="#DejaVuSans-6c"/>
     <use x="1582.865234" xlink:href="#DejaVuSans-69"/>
     <use x="1610.648438" xlink:href="#DejaVuSans-74"/>
     <use x="1649.857422" xlink:href="#DejaVuSans-79"/>
     <use x="1709.037109" xlink:href="#DejaVuSans-20"/>
     <use x="1740.824219" xlink:href="#DejaVuSans-61"/>
     <use x="1802.103516" xlink:href="#DejaVuSans-6e"/>
     <use x="1865.482422" xlink:href="#DejaVuSans-64"/>
     <use x="1928.958984" xlink:href="#DejaVuSans-20"/>
     <use x="1960.746094" xlink:href="#DejaVuSans-4d"/>
     <use x="2047.025391" xlink:href="#DejaVuSans-6f"/>
     <use x="2108.207031" xlink:href="#DejaVuSans-64"/>
     <use x="2171.683594" xlink:href="#DejaVuSans-65"/>
     <use x="2233.207031" xlink:href="#DejaVuSans-6c"/>
     <use x="2260.990234" xlink:href="#DejaVuSans-2d"/>
     <use x="2297.074219" xlink:href="#DejaVuSans-4d"/>
     <use x="2383.353516" xlink:href="#DejaVuSans-53"/>
     <use x="2446.830078" xlink:href="#DejaVuSans-45"/>
    </g>
   </g>
   <g id="legend_1">
    <g id="patch_7">
     <path d="M 120.6 558 
L 302.085 558 
Q 305.685 558 305.685 554.4 
L 305.685 450.5175 
Q 305.685 446.9175 302.085 446.9175 
L 120.6 446.9175 
Q 117 446.9175 117 450.5175 
L 117 554.4 
Q 117 558 120.6 558 
z
" style="fill:#ffffff;opacity:0.8;stroke:#cccccc;stroke-linejoin:miter;"/>
    </g>
    <g id="patch_8">
     <path d="M 124.2 467.794688 
L 160.2 467.794688 
L 160.2 455.194687 
L 124.2 455.194687 
z
" style="fill:#ffa500;stroke:#ffa500;stroke-linejoin:miter;"/>
    </g>
    <g id="text_15">
     <!-- 0-edge Graph -->
     <g transform="translate(174.6 467.794688)scale(0.18 -0.18)">
      <defs>
       <path d="M 2906 1791 
Q 2906 2416 2648 2759 
Q 2391 3103 1925 3103 
Q 1463 3103 1205 2759 
Q 947 2416 947 1791 
Q 947 1169 1205 825 
Q 1463 481 1925 481 
Q 2391 481 2648 825 
Q 2906 1169 2906 1791 
z
M 3481 434 
Q 3481 -459 3084 -895 
Q 2688 -1331 1869 -1331 
Q 1566 -1331 1297 -1286 
Q 1028 -1241 775 -1147 
L 775 -588 
Q 1028 -725 1275 -790 
Q 1522 -856 1778 -856 
Q 2344 -856 2625 -561 
Q 2906 -266 2906 331 
L 2906 616 
Q 2728 306 2450 153 
Q 2172 0 1784 0 
Q 1141 0 747 490 
Q 353 981 353 1791 
Q 353 2603 747 3093 
Q 1141 3584 1784 3584 
Q 2172 3584 2450 3431 
Q 2728 3278 2906 2969 
L 2906 3500 
L 3481 3500 
L 3481 434 
z
" id="DejaVuSans-67" transform="scale(0.015625)"/>
       <path d="M 3809 666 
L 3809 1919 
L 2778 1919 
L 2778 2438 
L 4434 2438 
L 4434 434 
Q 4069 175 3628 42 
Q 3188 -91 2688 -91 
Q 1594 -91 976 548 
Q 359 1188 359 2328 
Q 359 3472 976 4111 
Q 1594 4750 2688 4750 
Q 3144 4750 3555 4637 
Q 3966 4525 4313 4306 
L 4313 3634 
Q 3963 3931 3569 4081 
Q 3175 4231 2741 4231 
Q 1884 4231 1454 3753 
Q 1025 3275 1025 2328 
Q 1025 1384 1454 906 
Q 1884 428 2741 428 
Q 3075 428 3337 486 
Q 3600 544 3809 666 
z
" id="DejaVuSans-47" transform="scale(0.015625)"/>
       <path d="M 1159 525 
L 1159 -1331 
L 581 -1331 
L 581 3500 
L 1159 3500 
L 1159 2969 
Q 1341 3281 1617 3432 
Q 1894 3584 2278 3584 
Q 2916 3584 3314 3078 
Q 3713 2572 3713 1747 
Q 3713 922 3314 415 
Q 2916 -91 2278 -91 
Q 1894 -91 1617 61 
Q 1341 213 1159 525 
z
M 3116 1747 
Q 3116 2381 2855 2742 
Q 2594 3103 2138 3103 
Q 1681 3103 1420 2742 
Q 1159 2381 1159 1747 
Q 1159 1113 1420 752 
Q 1681 391 2138 391 
Q 2594 391 2855 752 
Q 3116 1113 3116 1747 
z
" id="DejaVuSans-70" transform="scale(0.015625)"/>
       <path d="M 3513 2113 
L 3513 0 
L 2938 0 
L 2938 2094 
Q 2938 2591 2744 2837 
Q 2550 3084 2163 3084 
Q 1697 3084 1428 2787 
Q 1159 2491 1159 1978 
L 1159 0 
L 581 0 
L 581 4863 
L 1159 4863 
L 1159 2956 
Q 1366 3272 1645 3428 
Q 1925 3584 2291 3584 
Q 2894 3584 3203 3211 
Q 3513 2838 3513 2113 
z
" id="DejaVuSans-68" transform="scale(0.015625)"/>
      </defs>
      <use xlink:href="#DejaVuSans-30"/>
      <use x="63.623047" xlink:href="#DejaVuSans-2d"/>
      <use x="99.707031" xlink:href="#DejaVuSans-65"/>
      <use x="161.230469" xlink:href="#DejaVuSans-64"/>
      <use x="224.707031" xlink:href="#DejaVuSans-67"/>
      <use x="288.183594" xlink:href="#DejaVuSans-65"/>
      <use x="349.707031" xlink:href="#DejaVuSans-20"/>
      <use x="381.494141" xlink:href="#DejaVuSans-47"/>
      <use x="458.984375" xlink:href="#DejaVuSans-72"/>
      <use x="500.097656" xlink:href="#DejaVuSans-61"/>
      <use x="561.376953" xlink:href="#DejaVuSans-70"/>
      <use x="624.853516" xlink:href="#DejaVuSans-68"/>
     </g>
    </g>
    <g id="patch_9">
     <path d="M 124.2 494.215312 
L 160.2 494.215312 
L 160.2 481.615312 
L 124.2 481.615312 
z
" style="fill:#228b22;stroke:#228b22;stroke-linejoin:miter;"/>
    </g>
    <g id="text_16">
     <!-- 1-edge Graph -->
     <g transform="translate(174.6 494.215312)scale(0.18 -0.18)">
      <use xlink:href="#DejaVuSans-31"/>
      <use x="63.623047" xlink:href="#DejaVuSans-2d"/>
      <use x="99.707031" xlink:href="#DejaVuSans-65"/>
      <use x="161.230469" xlink:href="#DejaVuSans-64"/>
      <use x="224.707031" xlink:href="#DejaVuSans-67"/>
      <use x="288.183594" xlink:href="#DejaVuSans-65"/>
      <use x="349.707031" xlink:href="#DejaVuSans-20"/>
      <use x="381.494141" xlink:href="#DejaVuSans-47"/>
      <use x="458.984375" xlink:href="#DejaVuSans-72"/>
      <use x="500.097656" xlink:href="#DejaVuSans-61"/>
      <use x="561.376953" xlink:href="#DejaVuSans-70"/>
      <use x="624.853516" xlink:href="#DejaVuSans-68"/>
     </g>
    </g>
    <g id="patch_10">
     <path d="M 124.2 520.635937 
L 160.2 520.635937 
L 160.2 508.035937 
L 124.2 508.035937 
z
" style="fill:#4169e1;stroke:#4169e1;stroke-linejoin:miter;"/>
    </g>
    <g id="text_17">
     <!-- 2-edge Graph -->
     <g transform="translate(174.6 520.635937)scale(0.18 -0.18)">
      <use xlink:href="#DejaVuSans-32"/>
      <use x="63.623047" xlink:href="#DejaVuSans-2d"/>
      <use x="99.707031" xlink:href="#DejaVuSans-65"/>
      <use x="161.230469" xlink:href="#DejaVuSans-64"/>
      <use x="224.707031" xlink:href="#DejaVuSans-67"/>
      <use x="288.183594" xlink:href="#DejaVuSans-65"/>
      <use x="349.707031" xlink:href="#DejaVuSans-20"/>
      <use x="381.494141" xlink:href="#DejaVuSans-47"/>
      <use x="458.984375" xlink:href="#DejaVuSans-72"/>
      <use x="500.097656" xlink:href="#DejaVuSans-61"/>
      <use x="561.376953" xlink:href="#DejaVuSans-70"/>
      <use x="624.853516" xlink:href="#DejaVuSans-68"/>
     </g>
    </g>
    <g id="patch_11">
     <path d="M 124.2 547.056563 
L 160.2 547.056563 
L 160.2 534.456563 
L 124.2 534.456563 
z
" style="fill:#800080;stroke:#800080;stroke-linejoin:miter;"/>
    </g>
    <g id="text_18">
     <!-- 3-edge Graph -->
     <g transform="translate(174.6 547.056563)scale(0.18 -0.18)">
      <defs>
       <path d="M 2597 2516 
Q 3050 2419 3304 2112 
Q 3559 1806 3559 1356 
Q 3559 666 3084 287 
Q 2609 -91 1734 -91 
Q 1441 -91 1130 -33 
Q 819 25 488 141 
L 488 750 
Q 750 597 1062 519 
Q 1375 441 1716 441 
Q 2309 441 2620 675 
Q 2931 909 2931 1356 
Q 2931 1769 2642 2001 
Q 2353 2234 1838 2234 
L 1294 2234 
L 1294 2753 
L 1863 2753 
Q 2328 2753 2575 2939 
Q 2822 3125 2822 3475 
Q 2822 3834 2567 4026 
Q 2313 4219 1838 4219 
Q 1578 4219 1281 4162 
Q 984 4106 628 3988 
L 628 4550 
Q 988 4650 1302 4700 
Q 1616 4750 1894 4750 
Q 2613 4750 3031 4423 
Q 3450 4097 3450 3541 
Q 3450 3153 3228 2886 
Q 3006 2619 2597 2516 
z
" id="DejaVuSans-33" transform="scale(0.015625)"/>
      </defs>
      <use xlink:href="#DejaVuSans-33"/>
      <use x="63.623047" xlink:href="#DejaVuSans-2d"/>
      <use x="99.707031" xlink:href="#DejaVuSans-65"/>
      <use x="161.230469" xlink:href="#DejaVuSans-64"/>
      <use x="224.707031" xlink:href="#DejaVuSans-67"/>
      <use x="288.183594" xlink:href="#DejaVuSans-65"/>
      <use x="349.707031" xlink:href="#DejaVuSans-20"/>
      <use x="381.494141" xlink:href="#DejaVuSans-47"/>
      <use x="458.984375" xlink:href="#DejaVuSans-72"/>
      <use x="500.097656" xlink:href="#DejaVuSans-61"/>
      <use x="561.376953" xlink:href="#DejaVuSans-70"/>
      <use x="624.853516" xlink:href="#DejaVuSans-68"/>
     </g>
    </g>
   </g>
  </g>
 </g>
 <defs>
  <clipPath id="p262d3a9265">
   <rect height="489.24" width="669.6" x="108" y="77.76"/>
  </clipPath>
 </defs>
</svg>
