<?xml version="1.0" encoding="UTF-8" standalone="no"?>
<!-- Created with Inkscape (http://www.inkscape.org/) -->

<svg
   version="1.1"
   id="svg57195"
   xml:space="preserve"
   width="456"
   height="290"
   viewBox="0 0 456 290"
   sodipodi:docname="sachsnt.svg"
   inkscape:version="1.1.2 (0a00cf5339, 2022-02-04)"
   xmlns:inkscape="http://www.inkscape.org/namespaces/inkscape"
   xmlns:sodipodi="http://sodipodi.sourceforge.net/DTD/sodipodi-0.dtd"
   xmlns="http://www.w3.org/2000/svg"
   xmlns:svg="http://www.w3.org/2000/svg"><defs
     id="defs57199"><clipPath
       clipPathUnits="userSpaceOnUse"
       id="clipPath57211"><path
         d="M 0,0 H 864 V 648 H 0 Z"
         id="path57209" /></clipPath><clipPath
       clipPathUnits="userSpaceOnUse"
       id="clipPath57223"><path
         d="M 0,0 H 864 V 648 H 0 Z"
         id="path57221" /></clipPath><clipPath
       clipPathUnits="userSpaceOnUse"
       id="clipPath57235"><path
         d="M 0,0 H 864 V 648 H 0 Z"
         id="path57233" /></clipPath><clipPath
       clipPathUnits="userSpaceOnUse"
       id="clipPath57247"><path
         d="M 0,0 H 864 V 648 H 0 Z"
         id="path57245" /></clipPath><clipPath
       clipPathUnits="userSpaceOnUse"
       id="clipPath57259"><path
         d="M 0,0 H 864 V 648 H 0 Z"
         id="path57257" /></clipPath><clipPath
       clipPathUnits="userSpaceOnUse"
       id="clipPath57271"><path
         d="M 0,0 H 864 V 648 H 0 Z"
         id="path57269" /></clipPath><clipPath
       clipPathUnits="userSpaceOnUse"
       id="clipPath57283"><path
         d="M 0,0 H 864 V 648 H 0 Z"
         id="path57281" /></clipPath><clipPath
       clipPathUnits="userSpaceOnUse"
       id="clipPath57295"><path
         d="M 0,0 H 864 V 648 H 0 Z"
         id="path57293" /></clipPath><clipPath
       clipPathUnits="userSpaceOnUse"
       id="clipPath57307"><path
         d="M 0,0 H 864 V 648 H 0 Z"
         id="path57305" /></clipPath><clipPath
       clipPathUnits="userSpaceOnUse"
       id="clipPath57319"><path
         d="M 0,0 H 864 V 648 H 0 Z"
         id="path57317" /></clipPath><clipPath
       clipPathUnits="userSpaceOnUse"
       id="clipPath57331"><path
         d="M 0,0 H 864 V 648 H 0 Z"
         id="path57329" /></clipPath><clipPath
       clipPathUnits="userSpaceOnUse"
       id="clipPath57343"><path
         d="M 0,0 H 864 V 648 H 0 Z"
         id="path57341" /></clipPath><clipPath
       clipPathUnits="userSpaceOnUse"
       id="clipPath57355"><path
         d="M 0,0 H 864 V 648 H 0 Z"
         id="path57353" /></clipPath><clipPath
       clipPathUnits="userSpaceOnUse"
       id="clipPath57367"><path
         d="M 0,0 H 864 V 648 H 0 Z"
         id="path57365" /></clipPath><clipPath
       clipPathUnits="userSpaceOnUse"
       id="clipPath57379"><path
         d="M 0,0 H 864 V 648 H 0 Z"
         id="path57377" /></clipPath><clipPath
       clipPathUnits="userSpaceOnUse"
       id="clipPath57389"><path
         d="M -27.36068,-27.36068 H 27.36068 V 27.36068 H -27.36068 Z"
         id="path57387" /></clipPath><clipPath
       clipPathUnits="userSpaceOnUse"
       id="clipPath57401"><path
         d="M -27.36068,-27.36068 H 27.36068 V 27.36068 H -27.36068 Z"
         id="path57399" /></clipPath><clipPath
       clipPathUnits="userSpaceOnUse"
       id="clipPath57413"><path
         d="M -27.36068,-27.36068 H 27.36068 V 27.36068 H -27.36068 Z"
         id="path57411" /></clipPath><clipPath
       clipPathUnits="userSpaceOnUse"
       id="clipPath57425"><path
         d="M -27.36068,-27.36068 H 27.36068 V 27.36068 H -27.36068 Z"
         id="path57423" /></clipPath><clipPath
       clipPathUnits="userSpaceOnUse"
       id="clipPath57437"><path
         d="M -27.36068,-27.36068 H 27.36068 V 27.36068 H -27.36068 Z"
         id="path57435" /></clipPath><clipPath
       clipPathUnits="userSpaceOnUse"
       id="clipPath57449"><path
         d="M -27.36068,-27.36068 H 27.36068 V 27.36068 H -27.36068 Z"
         id="path57447" /></clipPath><clipPath
       clipPathUnits="userSpaceOnUse"
       id="clipPath57461"><path
         d="M -27.36068,-27.36068 H 27.36068 V 27.36068 H -27.36068 Z"
         id="path57459" /></clipPath><clipPath
       clipPathUnits="userSpaceOnUse"
       id="clipPath57473"><path
         d="M -27.36068,-27.36068 H 27.36068 V 27.36068 H -27.36068 Z"
         id="path57471" /></clipPath><clipPath
       clipPathUnits="userSpaceOnUse"
       id="clipPath57485"><path
         d="M -27.36068,-27.36068 H 27.36068 V 27.36068 H -27.36068 Z"
         id="path57483" /></clipPath><clipPath
       clipPathUnits="userSpaceOnUse"
       id="clipPath57497"><path
         d="M -27.36068,-27.36068 H 27.36068 V 27.36068 H -27.36068 Z"
         id="path57495" /></clipPath><clipPath
       clipPathUnits="userSpaceOnUse"
       id="clipPath57509"><path
         d="M -27.36068,-27.36068 H 27.36068 V 27.36068 H -27.36068 Z"
         id="path57507" /></clipPath><clipPath
       clipPathUnits="userSpaceOnUse"
       id="clipPath57519"><path
         d="M 0,0 H 864 V 648 H 0 Z"
         id="path57517" /></clipPath><clipPath
       clipPathUnits="userSpaceOnUse"
       id="clipPath57533"><path
         d="M 0,0 H 864 V 648 H 0 Z"
         id="path57531" /></clipPath><clipPath
       clipPathUnits="userSpaceOnUse"
       id="clipPath57547"><path
         d="M 0,0 H 864 V 648 H 0 Z"
         id="path57545" /></clipPath><clipPath
       clipPathUnits="userSpaceOnUse"
       id="clipPath57561"><path
         d="M 0,0 H 864 V 648 H 0 Z"
         id="path57559" /></clipPath><clipPath
       clipPathUnits="userSpaceOnUse"
       id="clipPath57575"><path
         d="M 0,0 H 864 V 648 H 0 Z"
         id="path57573" /></clipPath><clipPath
       clipPathUnits="userSpaceOnUse"
       id="clipPath57589"><path
         d="M 0,0 H 864 V 648 H 0 Z"
         id="path57587" /></clipPath><clipPath
       clipPathUnits="userSpaceOnUse"
       id="clipPath57603"><path
         d="M 0,0 H 864 V 648 H 0 Z"
         id="path57601" /></clipPath><clipPath
       clipPathUnits="userSpaceOnUse"
       id="clipPath57617"><path
         d="M 0,0 H 864 V 648 H 0 Z"
         id="path57615" /></clipPath><clipPath
       clipPathUnits="userSpaceOnUse"
       id="clipPath57631"><path
         d="M 0,0 H 864 V 648 H 0 Z"
         id="path57629" /></clipPath><clipPath
       clipPathUnits="userSpaceOnUse"
       id="clipPath57645"><path
         d="M 0,0 H 864 V 648 H 0 Z"
         id="path57643" /></clipPath><clipPath
       clipPathUnits="userSpaceOnUse"
       id="clipPath57659"><path
         d="M 0,0 H 864 V 648 H 0 Z"
         id="path57657" /></clipPath><marker
       style="overflow:visible"
       id="Arrow2Mend-3-7"
       refX="0"
       refY="0"
       orient="auto"
       inkscape:stockid="Arrow2Mend"
       inkscape:isstock="true"><path
         transform="scale(-0.6)"
         d="M 8.7185878,4.0337352 -2.2072895,0.01601326 8.7185884,-4.0017078 c -1.7454984,2.3720609 -1.7354408,5.6174519 -6e-7,8.035443 z"
         style="fill:context-stroke;fill-rule:evenodd;stroke:context-stroke;stroke-width:0.625;stroke-linejoin:round"
         id="path3439-6-7" /></marker><marker
       style="overflow:visible"
       id="Arrow2Mend-3-59-9"
       refX="0"
       refY="0"
       orient="auto"
       inkscape:stockid="Arrow2Mend"
       inkscape:isstock="true"><path
         transform="scale(-0.6)"
         d="M 8.7185878,4.0337352 -2.2072895,0.01601326 8.7185884,-4.0017078 c -1.7454984,2.3720609 -1.7354408,5.6174519 -6e-7,8.035443 z"
         style="fill:context-stroke;fill-rule:evenodd;stroke:context-stroke;stroke-width:0.625;stroke-linejoin:round"
         id="path3439-6-4-2" /></marker><marker
       style="overflow:visible"
       id="Arrow2Mend-3-7-2"
       refX="0"
       refY="0"
       orient="auto"
       inkscape:stockid="Arrow2Mend"
       inkscape:isstock="true"><path
         transform="scale(-0.6)"
         d="M 8.7185878,4.0337352 -2.2072895,0.01601326 8.7185884,-4.0017078 c -1.7454984,2.3720609 -1.7354408,5.6174519 -6e-7,8.035443 z"
         style="fill:context-stroke;fill-rule:evenodd;stroke:context-stroke;stroke-width:0.625;stroke-linejoin:round"
         id="path3439-6-7-1" /></marker><marker
       style="overflow:visible"
       id="Arrow2Mend-3-7-2-9"
       refX="0"
       refY="0"
       orient="auto"
       inkscape:stockid="Arrow2Mend"
       inkscape:isstock="true"><path
         transform="scale(-0.6)"
         d="M 8.7185878,4.0337352 -2.2072895,0.01601326 8.7185884,-4.0017078 c -1.7454984,2.3720609 -1.7354408,5.6174519 -6e-7,8.035443 z"
         style="fill:context-stroke;fill-rule:evenodd;stroke:context-stroke;stroke-width:0.625;stroke-linejoin:round"
         id="path3439-6-7-1-9" /></marker><marker
       style="overflow:visible"
       id="Arrow2Mend-3-7-2-4"
       refX="0"
       refY="0"
       orient="auto"
       inkscape:stockid="Arrow2Mend"
       inkscape:isstock="true"><path
         transform="scale(-0.6)"
         d="M 8.7185878,4.0337352 -2.2072895,0.01601326 8.7185884,-4.0017078 c -1.7454984,2.3720609 -1.7354408,5.6174519 -6e-7,8.035443 z"
         style="fill:context-stroke;fill-rule:evenodd;stroke:context-stroke;stroke-width:0.625;stroke-linejoin:round"
         id="path3439-6-7-1-91" /></marker><marker
       style="overflow:visible"
       id="Arrow2Mend-3-59-9-7"
       refX="0"
       refY="0"
       orient="auto"
       inkscape:stockid="Arrow2Mend"
       inkscape:isstock="true"><path
         transform="scale(-0.6)"
         d="M 8.7185878,4.0337352 -2.2072895,0.01601326 8.7185884,-4.0017078 c -1.7454984,2.3720609 -1.7354408,5.6174519 -6e-7,8.035443 z"
         style="fill:context-stroke;fill-rule:evenodd;stroke:context-stroke;stroke-width:0.625;stroke-linejoin:round"
         id="path3439-6-4-2-5" /></marker><marker
       style="overflow:visible"
       id="Arrow2Mend-3-7-2-4-7"
       refX="0"
       refY="0"
       orient="auto"
       inkscape:stockid="Arrow2Mend"
       inkscape:isstock="true"><path
         transform="scale(-0.6)"
         d="M 8.7185878,4.0337352 -2.2072895,0.01601326 8.7185884,-4.0017078 c -1.7454984,2.3720609 -1.7354408,5.6174519 -6e-7,8.035443 z"
         style="fill:context-stroke;fill-rule:evenodd;stroke:context-stroke;stroke-width:0.625;stroke-linejoin:round"
         id="path3439-6-7-1-91-0" /></marker><marker
       style="overflow:visible"
       id="Arrow2Mend-3-59-9-7-8"
       refX="0"
       refY="0"
       orient="auto"
       inkscape:stockid="Arrow2Mend"
       inkscape:isstock="true"><path
         transform="scale(-0.6)"
         d="M 8.7185878,4.0337352 -2.2072895,0.01601326 8.7185884,-4.0017078 c -1.7454984,2.3720609 -1.7354408,5.6174519 -6e-7,8.035443 z"
         style="fill:context-stroke;fill-rule:evenodd;stroke:context-stroke;stroke-width:0.625;stroke-linejoin:round"
         id="path3439-6-4-2-5-0" /></marker><marker
       style="overflow:visible"
       id="Arrow2Mend-3-59-9-7-2"
       refX="0"
       refY="0"
       orient="auto"
       inkscape:stockid="Arrow2Mend"
       inkscape:isstock="true"><path
         transform="scale(-0.6)"
         d="M 8.7185878,4.0337352 -2.2072895,0.01601326 8.7185884,-4.0017078 c -1.7454984,2.3720609 -1.7354408,5.6174519 -6e-7,8.035443 z"
         style="fill:context-stroke;fill-rule:evenodd;stroke:context-stroke;stroke-width:0.625;stroke-linejoin:round"
         id="path3439-6-4-2-5-9" /></marker><marker
       style="overflow:visible"
       id="Arrow2Mend-3-59-9-7-1"
       refX="0"
       refY="0"
       orient="auto"
       inkscape:stockid="Arrow2Mend"
       inkscape:isstock="true"><path
         transform="scale(-0.6)"
         d="M 8.7185878,4.0337352 -2.2072895,0.01601326 8.7185884,-4.0017078 c -1.7454984,2.3720609 -1.7354408,5.6174519 -6e-7,8.035443 z"
         style="fill:context-stroke;fill-rule:evenodd;stroke:context-stroke;stroke-width:0.625;stroke-linejoin:round"
         id="path3439-6-4-2-5-04" /></marker><marker
       style="overflow:visible"
       id="Arrow2Mend-3-7-2-2"
       refX="0"
       refY="0"
       orient="auto"
       inkscape:stockid="Arrow2Mend"
       inkscape:isstock="true"><path
         transform="scale(-0.6)"
         d="M 8.7185878,4.0337352 -2.2072895,0.01601326 8.7185884,-4.0017078 c -1.7454984,2.3720609 -1.7354408,5.6174519 -6e-7,8.035443 z"
         style="fill:context-stroke;fill-rule:evenodd;stroke:context-stroke;stroke-width:0.625;stroke-linejoin:round"
         id="path3439-6-7-1-2" /></marker><marker
       style="overflow:visible"
       id="Arrow2Mend-3-59-9-7-1-5"
       refX="0"
       refY="0"
       orient="auto"
       inkscape:stockid="Arrow2Mend"
       inkscape:isstock="true"><path
         transform="scale(-0.6)"
         d="M 8.7185878,4.0337352 -2.2072895,0.01601326 8.7185884,-4.0017078 c -1.7454984,2.3720609 -1.7354408,5.6174519 -6e-7,8.035443 z"
         style="fill:context-stroke;fill-rule:evenodd;stroke:context-stroke;stroke-width:0.625;stroke-linejoin:round"
         id="path3439-6-4-2-5-04-2" /></marker><marker
       style="overflow:visible"
       id="Arrow2Mend-3-59-9-7-1-5-0"
       refX="0"
       refY="0"
       orient="auto"
       inkscape:stockid="Arrow2Mend"
       inkscape:isstock="true"><path
         transform="scale(-0.6)"
         d="M 8.7185878,4.0337352 -2.2072895,0.01601326 8.7185884,-4.0017078 c -1.7454984,2.3720609 -1.7354408,5.6174519 -6e-7,8.035443 z"
         style="fill:context-stroke;fill-rule:evenodd;stroke:context-stroke;stroke-width:0.625;stroke-linejoin:round"
         id="path3439-6-4-2-5-04-2-2" /></marker><marker
       style="overflow:visible"
       id="Arrow2Mend-3-7-2-9-4"
       refX="0"
       refY="0"
       orient="auto"
       inkscape:stockid="Arrow2Mend"
       inkscape:isstock="true"><path
         transform="scale(-0.6)"
         d="M 8.7185878,4.0337352 -2.2072895,0.01601326 8.7185884,-4.0017078 c -1.7454984,2.3720609 -1.7354408,5.6174519 -6e-7,8.035443 z"
         style="fill:context-stroke;fill-rule:evenodd;stroke:context-stroke;stroke-width:0.625;stroke-linejoin:round"
         id="path3439-6-7-1-9-9" /></marker><marker
       style="overflow:visible"
       id="Arrow2Mend-3-7-3"
       refX="0"
       refY="0"
       orient="auto"
       inkscape:stockid="Arrow2Mend"
       inkscape:isstock="true"><path
         transform="scale(-0.6)"
         d="M 8.7185878,4.0337352 -2.2072895,0.01601326 8.7185884,-4.0017078 c -1.7454984,2.3720609 -1.7354408,5.6174519 -6e-7,8.035443 z"
         style="fill:context-stroke;fill-rule:evenodd;stroke:context-stroke;stroke-width:0.625;stroke-linejoin:round"
         id="path3439-6-7-6" /></marker><marker
       style="overflow:visible"
       id="Arrow2Mend-3-7-5"
       refX="0"
       refY="0"
       orient="auto"
       inkscape:stockid="Arrow2Mend"
       inkscape:isstock="true"><path
         transform="scale(-0.6)"
         d="M 8.7185878,4.0337352 -2.2072895,0.01601326 8.7185884,-4.0017078 c -1.7454984,2.3720609 -1.7354408,5.6174519 -6e-7,8.035443 z"
         style="fill:context-stroke;fill-rule:evenodd;stroke:context-stroke;stroke-width:0.625;stroke-linejoin:round"
         id="path3439-6-7-0" /></marker><marker
       style="overflow:visible"
       id="Arrow2Mend-3-7-9"
       refX="0"
       refY="0"
       orient="auto"
       inkscape:stockid="Arrow2Mend"
       inkscape:isstock="true"><path
         transform="scale(-0.6)"
         d="M 8.7185878,4.0337352 -2.2072895,0.01601326 8.7185884,-4.0017078 c -1.7454984,2.3720609 -1.7354408,5.6174519 -6e-7,8.035443 z"
         style="fill:context-stroke;fill-rule:evenodd;stroke:context-stroke;stroke-width:0.625;stroke-linejoin:round"
         id="path3439-6-7-4" /></marker><marker
       style="overflow:visible"
       id="Arrow2Mend-3-7-51"
       refX="0"
       refY="0"
       orient="auto"
       inkscape:stockid="Arrow2Mend"
       inkscape:isstock="true"><path
         transform="scale(-0.6)"
         d="M 8.7185878,4.0337352 -2.2072895,0.01601326 8.7185884,-4.0017078 c -1.7454984,2.3720609 -1.7354408,5.6174519 -6e-7,8.035443 z"
         style="fill:context-stroke;fill-rule:evenodd;stroke:context-stroke;stroke-width:0.625;stroke-linejoin:round"
         id="path3439-6-7-7" /></marker><marker
       style="overflow:visible"
       id="Arrow2Mend-3-7-31"
       refX="0"
       refY="0"
       orient="auto"
       inkscape:stockid="Arrow2Mend"
       inkscape:isstock="true"><path
         transform="scale(-0.6)"
         d="M 8.7185878,4.0337352 -2.2072895,0.01601326 8.7185884,-4.0017078 c -1.7454984,2.3720609 -1.7354408,5.6174519 -6e-7,8.035443 z"
         style="fill:context-stroke;fill-rule:evenodd;stroke:context-stroke;stroke-width:0.625;stroke-linejoin:round"
         id="path3439-6-7-46" /></marker><marker
       style="overflow:visible"
       id="Arrow2Mend-3-7-4"
       refX="0"
       refY="0"
       orient="auto"
       inkscape:stockid="Arrow2Mend"
       inkscape:isstock="true"><path
         transform="scale(-0.6)"
         d="M 8.7185878,4.0337352 -2.2072895,0.01601326 8.7185884,-4.0017078 c -1.7454984,2.3720609 -1.7354408,5.6174519 -6e-7,8.035443 z"
         style="fill:context-stroke;fill-rule:evenodd;stroke:context-stroke;stroke-width:0.625;stroke-linejoin:round"
         id="path3439-6-7-2" /></marker><marker
       style="overflow:visible"
       id="Arrow2Mend-3-7-41"
       refX="0"
       refY="0"
       orient="auto"
       inkscape:stockid="Arrow2Mend"
       inkscape:isstock="true"><path
         transform="scale(-0.6)"
         d="M 8.7185878,4.0337352 -2.2072895,0.01601326 8.7185884,-4.0017078 c -1.7454984,2.3720609 -1.7354408,5.6174519 -6e-7,8.035443 z"
         style="fill:context-stroke;fill-rule:evenodd;stroke:context-stroke;stroke-width:0.625;stroke-linejoin:round"
         id="path3439-6-7-28" /></marker></defs><sodipodi:namedview
     id="namedview57197"
     pagecolor="#ffffff"
     bordercolor="#666666"
     borderopacity="1.0"
     inkscape:pageshadow="2"
     inkscape:pageopacity="0.0"
     inkscape:pagecheckerboard="0"
     showgrid="false"
     inkscape:zoom="2.0208333"
     inkscape:cx="210.30928"
     inkscape:cy="148.94845"
     inkscape:window-width="1920"
     inkscape:window-height="1043"
     inkscape:window-x="0"
     inkscape:window-y="0"
     inkscape:window-maximized="1"
     inkscape:current-layer="g57201" /><g
     id="g57201"
     inkscape:groupmode="layer"
     inkscape:label="sachsnt"
     transform="matrix(1.3333333,0,0,-1.3333333,0,864)"><path
       style="fill:none;stroke:#00883a;stroke-width:1.8;stroke-linecap:butt;stroke-linejoin:miter;stroke-miterlimit:4;stroke-dasharray:1.8, 1.8;stroke-dashoffset:0;stroke-opacity:1;marker-end:url(#Arrow2Mend-3-59-9-7-1-5-0)"
       d="m 73.109093,529.39216 96.851097,9.61353"
       id="path3330-7-6-2-8-2-9-8" /><path
       style="fill:none;stroke:#00883a;stroke-width:1.8;stroke-linecap:butt;stroke-linejoin:miter;stroke-miterlimit:4;stroke-dasharray:1.8, 1.8;stroke-dashoffset:0;stroke-opacity:1;marker-end:url(#Arrow2Mend-3-59-9-7-1-5)"
       d="M 43.421329,568.69528 170.10197,546.14078"
       id="path3330-7-6-2-8-2-9" /><path
       style="fill:#ff0000;fill-opacity:1;stroke:#ff0000;stroke-width:1.8;stroke-linecap:butt;stroke-linejoin:miter;stroke-miterlimit:4;stroke-dasharray:none;stroke-opacity:1;marker-end:url(#Arrow2Mend-3-7-2-2)"
       d="M 173.21996,554.19356 48.97298,576.51108"
       id="path31453-5-05" /><path
       style="fill:none;stroke:#00883a;stroke-width:1.8;stroke-linecap:butt;stroke-linejoin:miter;stroke-miterlimit:4;stroke-dasharray:1.8, 1.8;stroke-dashoffset:0;stroke-opacity:1;marker-end:url(#Arrow2Mend-3-59-9-7-1)"
       d="m 193.16917,603.06026 -1.44423,-35.79072"
       id="path3330-7-6-2-8-2" /><path
       style="fill:none;stroke:#00883a;stroke-width:1.8;stroke-linecap:butt;stroke-linejoin:miter;stroke-miterlimit:4;stroke-dasharray:1.8, 1.8;stroke-dashoffset:0;stroke-opacity:1;marker-end:url(#Arrow2Mend-3-59-9-7-2)"
       d="m 179.09005,560.63885 -61.17829,46.12733"
       id="path3330-7-6-2-8-6" /><path
       style="fill:none;stroke:#00883a;stroke-width:1.80000005;stroke-linecap:butt;stroke-linejoin:miter;stroke-miterlimit:4;stroke-dasharray:1.80000005,1.80000005;stroke-dashoffset:0;stroke-opacity:1;marker-end:url(#Arrow2Mend-3-59-9-7-8)"
       d="m 293.69377,552.41184 -73.98263,-6.8837"
       id="path3330-7-6-2-8-4" /><path
       style="fill:#ff0000;fill-opacity:1;stroke:#ff0000;stroke-width:1.37639;stroke-linecap:butt;stroke-linejoin:miter;stroke-miterlimit:4;stroke-dasharray:none;stroke-opacity:1;marker-end:url(#Arrow2Mend-3-7-2-4-7)"
       d="m 214.82291,535.84977 79.516,8.1078"
       id="path31453-5-0-4" /><path
       style="fill:none;stroke:#00883a;stroke-width:1.8;stroke-linecap:butt;stroke-linejoin:miter;stroke-miterlimit:4;stroke-dasharray:1.8, 1.8;stroke-dashoffset:0;stroke-opacity:1;marker-end:url(#Arrow2Mend-3-59-9-7)"
       d="M 277.65812,617.27371 211.91827,558.88088"
       id="path3330-7-6-2-8" /><path
       style="fill:#ff0000;fill-opacity:1;stroke:#ff0000;stroke-width:1.8;stroke-linecap:butt;stroke-linejoin:miter;stroke-miterlimit:4;stroke-dasharray:none;stroke-opacity:1;marker-end:url(#Arrow2Mend-3-7-2)"
       d="m 209.20055,530.54734 78.69298,-40.58187"
       id="path31453-5" /><path
       style="fill:none;stroke:#00883a;stroke-width:1.8;stroke-linecap:butt;stroke-linejoin:miter;stroke-miterlimit:4;stroke-dasharray:1.8, 1.8;stroke-dashoffset:0;stroke-opacity:1;marker-end:url(#Arrow2Mend-3-59-9)"
       d="M 67.907067,467.99547 174.88837,524.83099"
       id="path3330-7-6-2" /><g
       id="g57383"
       transform="translate(49.212701,523.90979)"><g
         id="g57385"
         clip-path="url(#clipPath57389)"><path
           d="m 0,-22.36068 c 5.930122,0 11.618159,2.356063 15.811388,6.549292 4.193229,4.193229 6.549292,9.881266 6.549292,15.811388 0,5.930122 -2.356063,11.618159 -6.549292,15.811388 C 11.618159,20.004617 5.930122,22.36068 0,22.36068 c -5.930122,0 -11.618159,-2.356063 -15.811388,-6.549292 C -20.004617,11.618159 -22.36068,5.930122 -22.36068,0 c 0,-5.930122 2.356063,-11.618159 6.549292,-15.811388 C -11.618159,-20.004617 -5.930122,-22.36068 0,-22.36068 Z"
           style="fill:#ffffff;fill-opacity:1;fill-rule:nonzero;stroke:#000000;stroke-width:1;stroke-linecap:butt;stroke-linejoin:round;stroke-miterlimit:10;stroke-dasharray:none;stroke-opacity:1"
           id="path57391" /></g></g><g
       id="g57395"
       transform="translate(50.334077,453.71139)"><g
         id="g57397"
         clip-path="url(#clipPath57401)"><path
           d="m 0,-22.36068 c 5.930122,0 11.618159,2.356063 15.811388,6.549292 4.193229,4.193229 6.549292,9.881266 6.549292,15.811388 0,5.930122 -2.356063,11.618159 -6.549292,15.811388 C 11.618159,20.004617 5.930122,22.36068 0,22.36068 c -5.930122,0 -11.618159,-2.356063 -15.811388,-6.549292 C -20.004617,11.618159 -22.36068,5.930122 -22.36068,0 c 0,-5.930122 2.356063,-11.618159 6.549292,-15.811388 C -11.618159,-20.004617 -5.930122,-22.36068 0,-22.36068 Z"
           style="fill:#ffffff;fill-opacity:1;fill-rule:nonzero;stroke:#000000;stroke-width:1;stroke-linecap:butt;stroke-linejoin:round;stroke-miterlimit:10;stroke-dasharray:none;stroke-opacity:1"
           id="path57403" /></g></g><g
       id="g57407"
       transform="translate(119.39722,453.42029)"><g
         id="g57409"
         clip-path="url(#clipPath57413)"><path
           d="m 0,-22.36068 c 5.930122,0 11.618159,2.356063 15.811388,6.549292 4.193229,4.193229 6.549292,9.881266 6.549292,15.811388 0,5.930122 -2.356063,11.618159 -6.549292,15.811388 C 11.618159,20.004617 5.930122,22.36068 0,22.36068 c -5.930122,0 -11.618159,-2.356063 -15.811388,-6.549292 C -20.004617,11.618159 -22.36068,5.930122 -22.36068,0 c 0,-5.930122 2.356063,-11.618159 6.549292,-15.811388 C -11.618159,-20.004617 -5.930122,-22.36068 0,-22.36068 Z"
           style="fill:#ffffff;fill-opacity:1;fill-rule:nonzero;stroke:#000000;stroke-width:1;stroke-linecap:butt;stroke-linejoin:round;stroke-miterlimit:10;stroke-dasharray:none;stroke-opacity:1"
           id="path57415" /></g></g><g
       id="g57419"
       transform="translate(206.85762,453.97532)"><g
         id="g57421"
         clip-path="url(#clipPath57425)"><path
           d="m 0,-22.36068 c 5.930122,0 11.618159,2.356063 15.811388,6.549292 4.193229,4.193229 6.549292,9.881266 6.549292,15.811388 0,5.930122 -2.356063,11.618159 -6.549292,15.811388 C 11.618159,20.004617 5.930122,22.36068 0,22.36068 c -5.930122,0 -11.618159,-2.356063 -15.811388,-6.549292 C -20.004617,11.618159 -22.36068,5.930122 -22.36068,0 c 0,-5.930122 2.356063,-11.618159 6.549292,-15.811388 C -11.618159,-20.004617 -5.930122,-22.36068 0,-22.36068 Z"
           style="fill:#ffffff;fill-opacity:1;fill-rule:nonzero;stroke:#000000;stroke-width:1;stroke-linecap:butt;stroke-linejoin:round;stroke-miterlimit:10;stroke-dasharray:none;stroke-opacity:1"
           id="path57427" /></g></g><g
       id="g57431"
       transform="translate(301.1887,468.19471)"><g
         id="g57433"
         clip-path="url(#clipPath57437)"><path
           d="m 0,-22.36068 c 5.930122,0 11.618159,2.356063 15.811388,6.549292 4.193229,4.193229 6.549292,9.881266 6.549292,15.811388 0,5.930122 -2.356063,11.618159 -6.549292,15.811388 C 11.618159,20.004617 5.930122,22.36068 0,22.36068 c -5.930122,0 -11.618159,-2.356063 -15.811388,-6.549292 C -20.004617,11.618159 -22.36068,5.930122 -22.36068,0 c 0,-5.930122 2.356063,-11.618159 6.549292,-15.811388 C -11.618159,-20.004617 -5.930122,-22.36068 0,-22.36068 Z"
           style="fill:#ffffff;fill-opacity:1;fill-rule:nonzero;stroke:#000000;stroke-width:1;stroke-linecap:butt;stroke-linejoin:round;stroke-miterlimit:10;stroke-dasharray:none;stroke-opacity:1"
           id="path57439" /></g></g><g
       id="g57443"
       transform="translate(318.82799,547.58624)"><g
         id="g57445"
         clip-path="url(#clipPath57449)"><path
           d="m 0,-22.36068 c 5.930122,0 11.618159,2.356063 15.811388,6.549292 4.193229,4.193229 6.549292,9.881266 6.549292,15.811388 0,5.930122 -2.356063,11.618159 -6.549292,15.811388 C 11.618159,20.004617 5.930122,22.36068 0,22.36068 c -5.930122,0 -11.618159,-2.356063 -15.811388,-6.549292 C -20.004617,11.618159 -22.36068,5.930122 -22.36068,0 c 0,-5.930122 2.356063,-11.618159 6.549292,-15.811388 C -11.618159,-20.004617 -5.930122,-22.36068 0,-22.36068 Z"
           style="fill:#ffffff;fill-opacity:1;fill-rule:nonzero;stroke:#000000;stroke-width:1;stroke-linecap:butt;stroke-linejoin:round;stroke-miterlimit:10;stroke-dasharray:none;stroke-opacity:1"
           id="path57451" /></g></g><g
       id="g57455"
       transform="translate(301.84329,619.88398)"><g
         id="g57457"
         clip-path="url(#clipPath57461)"><path
           d="m 0,-22.36068 c 5.930122,0 11.618159,2.356063 15.811388,6.549292 4.193229,4.193229 6.549292,9.881266 6.549292,15.811388 0,5.930122 -2.356063,11.618159 -6.549292,15.811388 C 11.618159,20.004617 5.930122,22.36068 0,22.36068 c -5.930122,0 -11.618159,-2.356063 -15.811388,-6.549292 C -20.004617,11.618159 -22.36068,5.930122 -22.36068,0 c 0,-5.930122 2.356063,-11.618159 6.549292,-15.811388 C -11.618159,-20.004617 -5.930122,-22.36068 0,-22.36068 Z"
           style="fill:#ffffff;fill-opacity:1;fill-rule:nonzero;stroke:#000000;stroke-width:1;stroke-linecap:butt;stroke-linejoin:round;stroke-miterlimit:10;stroke-dasharray:none;stroke-opacity:1"
           id="path57463" /></g></g><g
       id="g57467"
       transform="translate(193.02333,542.82887)"><g
         id="g57469"
         clip-path="url(#clipPath57473)"><path
           d="m 0,-22.36068 c 5.930122,0 11.618159,2.356063 15.811388,6.549292 4.193229,4.193229 6.549292,9.881266 6.549292,15.811388 0,5.930122 -2.356063,11.618159 -6.549292,15.811388 C 11.618159,20.004617 5.930122,22.36068 0,22.36068 c -5.930122,0 -11.618159,-2.356063 -15.811388,-6.549292 C -20.004617,11.618159 -22.36068,5.930122 -22.36068,0 c 0,-5.930122 2.356063,-11.618159 6.549292,-15.811388 C -11.618159,-20.004617 -5.930122,-22.36068 0,-22.36068 Z"
           style="fill:#ffffff;fill-opacity:1;fill-rule:nonzero;stroke:#000000;stroke-width:1;stroke-linecap:butt;stroke-linejoin:round;stroke-miterlimit:10;stroke-dasharray:none;stroke-opacity:1"
           id="path57475" /></g></g><g
       id="g57479"
       transform="translate(196.5463,625.46758)"><g
         id="g57481"
         clip-path="url(#clipPath57485)"><path
           d="m 0,-22.36068 c 5.930122,0 11.618159,2.356063 15.811388,6.549292 4.193229,4.193229 6.549292,9.881266 6.549292,15.811388 0,5.930122 -2.356063,11.618159 -6.549292,15.811388 C 11.618159,20.004617 5.930122,22.36068 0,22.36068 c -5.930122,0 -11.618159,-2.356063 -15.811388,-6.549292 C -20.004617,11.618159 -22.36068,5.930122 -22.36068,0 c 0,-5.930122 2.356063,-11.618159 6.549292,-15.811388 C -11.618159,-20.004617 -5.930122,-22.36068 0,-22.36068 Z"
           style="fill:#ffffff;fill-opacity:1;fill-rule:nonzero;stroke:#000000;stroke-width:1;stroke-linecap:butt;stroke-linejoin:round;stroke-miterlimit:10;stroke-dasharray:none;stroke-opacity:1"
           id="path57487" /></g></g><g
       id="g57491"
       transform="translate(101.27469,624.84237)"><g
         id="g57493"
         clip-path="url(#clipPath57497)"><path
           d="m 0,-22.36068 c 5.930122,0 11.618159,2.356063 15.811388,6.549292 4.193229,4.193229 6.549292,9.881266 6.549292,15.811388 0,5.930122 -2.356063,11.618159 -6.549292,15.811388 C 11.618159,20.004617 5.930122,22.36068 0,22.36068 c -5.930122,0 -11.618159,-2.356063 -15.811388,-6.549292 C -20.004617,11.618159 -22.36068,5.930122 -22.36068,0 c 0,-5.930122 2.356063,-11.618159 6.549292,-15.811388 C -11.618159,-20.004617 -5.930122,-22.36068 0,-22.36068 Z"
           style="fill:#ffffff;fill-opacity:1;fill-rule:nonzero;stroke:#000000;stroke-width:1;stroke-linecap:butt;stroke-linejoin:round;stroke-miterlimit:10;stroke-dasharray:none;stroke-opacity:1"
           id="path57499" /></g></g><g
       id="g57501"
       transform="translate(23.922246,583.7329)"><g
         id="g57503"><g
           id="g57505"
           clip-path="url(#clipPath57509)"><path
             d="m 0,-22.36068 c 5.930122,0 11.618159,2.356063 15.811388,6.549292 4.193229,4.193229 6.549292,9.881266 6.549292,15.811388 0,5.930122 -2.356063,11.618159 -6.549292,15.811388 C 11.618159,20.004617 5.930122,22.36068 0,22.36068 c -5.930122,0 -11.618159,-2.356063 -15.811388,-6.549292 C -20.004617,11.618159 -22.36068,5.930122 -22.36068,0 c 0,-5.930122 2.356063,-11.618159 6.549292,-15.811388 C -11.618159,-20.004617 -5.930122,-22.36068 0,-22.36068 Z"
             style="fill:#ffffff;fill-opacity:1;fill-rule:nonzero;stroke:#000000;stroke-width:1;stroke-linecap:butt;stroke-linejoin:round;stroke-miterlimit:10;stroke-dasharray:none;stroke-opacity:1"
             id="path57511" /></g></g></g><g
       id="g57513"
       transform="translate(-25.762508,199.90982)"><g
         id="g57515"
         clip-path="url(#clipPath57519)"><g
           id="g57521"
           transform="translate(65.139269,320.68748)"><text
             transform="scale(1,-1)"
             style="font-variant:normal;font-weight:normal;font-size:12px;font-family:'DejaVu Sans';-inkscape-font-specification:DejaVuSans;writing-mode:lr-tb;fill:#000000;fill-opacity:1;fill-rule:nonzero;stroke:none"
             id="text57525"><tspan
               x="0 8.0900002 15.446"
               y="0"
               sodipodi:role="line"
               id="tspan57523">Raf</tspan></text></g></g></g><g
       id="g57527"
       transform="translate(-82.489208,275.96671)"><g
         id="g57529"
         clip-path="url(#clipPath57533)"><g
           id="g57535"
           transform="translate(120.48734,174.43218)"><text
             transform="scale(1,-1)"
             style="font-variant:normal;font-weight:normal;font-size:12px;font-family:'DejaVu Sans';-inkscape-font-specification:DejaVuSans;writing-mode:lr-tb;fill:#000000;fill-opacity:1;fill-rule:nonzero;stroke:none"
             id="text57539"><tspan
               x="0 10.356 17.712"
               y="0"
               sodipodi:role="line"
               id="tspan57537">Mak</tspan></text></g></g></g><g
       id="g57541"
       transform="translate(-168.6038,375.49586)"><g
         id="g57543"
         clip-path="url(#clipPath57547)"><g
           id="g57549"
           transform="translate(275.6104,74.61193)"><text
             transform="scale(1,-1)"
             style="font-variant:normal;font-weight:normal;font-size:12px;font-family:'DejaVu Sans';-inkscape-font-specification:DejaVuSans;writing-mode:lr-tb;fill:#000000;fill-opacity:1;fill-rule:nonzero;stroke:none"
             id="text57553"><tspan
               x="0 7.2360001 10.572 17.172001"
               y="0"
               sodipodi:role="line"
               id="tspan57551">Plcg</tspan></text></g></g></g><g
       id="g57555"
       transform="translate(-284.38321,397.74392)"><g
         id="g57557"
         clip-path="url(#clipPath57561)"><g
           id="g57563"
           transform="translate(478.4127,52.918905)"><text
             transform="scale(1,-1)"
             style="font-variant:normal;font-weight:normal;font-size:12px;font-family:'DejaVu Sans';-inkscape-font-specification:DejaVuSans;writing-mode:lr-tb;fill:#000000;fill-opacity:1;fill-rule:nonzero;stroke:none"
             id="text57567"><tspan
               x="0 7.2360001 10.776 18.011999"
               y="0"
               sodipodi:role="line"
               id="tspan57565">PIP2</tspan></text></g></g></g><g
       id="g57569"
       transform="translate(-376.82648,348.64169)"><g
         id="g57571"
         clip-path="url(#clipPath57575)"><g
           id="g57577"
           transform="translate(665.18705,116.24052)"><text
             transform="scale(1,-1)"
             style="font-variant:normal;font-weight:normal;font-size:12px;font-family:'DejaVu Sans';-inkscape-font-specification:DejaVuSans;writing-mode:lr-tb;fill:#000000;fill-opacity:1;fill-rule:nonzero;stroke:none"
             id="text57581"><tspan
               x="0 7.2360001 10.776 18.011999"
               y="0"
               sodipodi:role="line"
               id="tspan57579">PIP3</tspan></text></g></g></g><g
       id="g57583"
       transform="translate(-470.19681,299.99387)"><g
         id="g57585"
         clip-path="url(#clipPath57589)"><g
           id="g57591"
           transform="translate(779.29042,244.47269)"><text
             transform="scale(1,-1)"
             style="font-variant:normal;font-weight:normal;font-size:12px;font-family:'DejaVu Sans';-inkscape-font-specification:DejaVuSans;writing-mode:lr-tb;fill:#000000;fill-opacity:1;fill-rule:nonzero;stroke:none"
             id="text57595"><tspan
               x="0 7.5840001 12.516"
               y="0"
               sodipodi:role="line"
               id="tspan57593">Erk</tspan></text></g></g></g><g
       id="g57597"
       transform="translate(-487.18147,219.66906)"><g
         id="g57599"
         clip-path="url(#clipPath57603)"><g
           id="g57605"
           transform="translate(779.09506,396.90242)"><text
             transform="scale(1,-1)"
             style="font-variant:normal;font-weight:normal;font-size:12px;font-family:'DejaVu Sans';-inkscape-font-specification:DejaVuSans;writing-mode:lr-tb;fill:#000000;fill-opacity:1;fill-rule:nonzero;stroke:none"
             id="text57609"><tspan
               x="0 8.2080002 15.156"
               y="0"
               sodipodi:role="line"
               id="tspan57607">Akt</tspan></text></g></g></g><g
       id="g57611"
       transform="translate(-484.99188,14.381902)"><g
         id="g57613"
         clip-path="url(#clipPath57617)"><g
           id="g57619"
           transform="translate(666.48395,525.13448)"><text
             transform="scale(1,-1)"
             style="font-variant:normal;font-weight:normal;font-size:12px;font-family:'DejaVu Sans';-inkscape-font-specification:DejaVuSans;writing-mode:lr-tb;fill:#000000;fill-opacity:1;fill-rule:nonzero;stroke:none"
             id="text57623"><tspan
               x="0 7.2360001 14.904875"
               y="0"
               sodipodi:role="line"
               id="tspan57621">PKA</tspan></text></g></g></g><g
       id="g57625"
       transform="translate(-294.69458,33.698985)"><g
         id="g57627"
         clip-path="url(#clipPath57631)"><g
           id="g57633"
           transform="translate(479.81118,588.4561)"><text
             transform="scale(1,-1)"
             style="font-variant:normal;font-weight:normal;font-size:12px;font-family:'DejaVu Sans';-inkscape-font-specification:DejaVuSans;writing-mode:lr-tb;fill:#000000;fill-opacity:1;fill-rule:nonzero;stroke:none"
             id="text57637"><tspan
               x="0 7.2360001 14.45175"
               y="0"
               sodipodi:role="line"
               id="tspan57635">PKC</tspan></text></g></g></g><g
       id="g57641"
       clip-path="url(#clipPath57645)"
       transform="translate(-186.72624,54.766818)"><g
         id="g57647"
         transform="translate(276.74311,566.76305)"><text
           transform="scale(1,-1)"
           style="font-variant:normal;font-weight:normal;font-size:12px;font-family:'DejaVu Sans';-inkscape-font-specification:DejaVuSans;writing-mode:lr-tb;fill:#000000;fill-opacity:1;fill-rule:nonzero;stroke:none"
           id="text57651"><tspan
             x="0 7.2360001 14.868"
             y="0"
             sodipodi:role="line"
             id="tspan57649">P38</tspan></text></g></g><g
       id="g57653"
       transform="translate(-108.90098,113.47764)"><g
         id="g57655"
         clip-path="url(#clipPath57659)"><g
           id="g57661"
           transform="translate(123.76853,466.94277)"><text
             transform="scale(1,-1)"
             style="font-variant:normal;font-weight:normal;font-size:12px;font-family:'DejaVu Sans';-inkscape-font-specification:DejaVuSans;writing-mode:lr-tb;fill:#000000;fill-opacity:1;fill-rule:nonzero;stroke:none"
             id="text57665"><tspan
               x="0 3.54 11.148"
               y="0"
               sodipodi:role="line"
               id="tspan57663">Jnk</tspan></text></g></g></g><path
       style="fill:#ff0000;fill-opacity:1;stroke:#ff0000;stroke-width:1.8;stroke-linecap:butt;stroke-linejoin:miter;stroke-miterlimit:4;stroke-dasharray:none;stroke-opacity:1;marker-end:url(#Arrow2Mend-3-7-2-9)"
       d="m 193.0482,520.46335 8.218,-42.21701"
       id="path31453-5-1" /><path
       style="fill:#ff0000;fill-opacity:1;stroke:#ff0000;stroke-width:1.8;stroke-linecap:butt;stroke-linejoin:miter;stroke-miterlimit:4;stroke-dasharray:none;stroke-opacity:1;marker-end:url(#Arrow2Mend-3-7-2-4)"
       d="m 215.85842,549.45815 64.6567,57.31341"
       id="path31453-5-0" /><circle
       style="fill:none;stroke:#0f77ff;stroke-width:1.8;stroke-linecap:butt;stroke-miterlimit:4;stroke-dasharray:none;stroke-dashoffset:0;stroke-opacity:1"
       id="path41836"
       cx="302.18753"
       cy="-620.02716"
       r="22.361149"
       transform="scale(1,-1)" /><path
       style="fill:none;fill-opacity:1;stroke:#ff0000;stroke-width:1.8;stroke-linecap:butt;stroke-linejoin:miter;stroke-miterlimit:4;stroke-dasharray:none;stroke-opacity:1;marker-end:url(#Arrow2Mend-3-7-2-9-4)"
       d="m 133.05588,472.53731 c 40.46663,35.47236 88.45625,36.38323 143.62569,4.30905"
       id="path31453-5-1-9"
       sodipodi:nodetypes="cc" /><path
       style="fill:none;stroke:#000000;stroke-width:1.80000005;stroke-linecap:butt;stroke-linejoin:miter;stroke-miterlimit:4;stroke-dasharray:none;stroke-opacity:1;marker-end:url(#Arrow2Mend-3-7-3)"
       d="m 174.90871,627.47328 -48.95282,-0.55467"
       id="path76918-0" /><path
       style="fill:none;stroke:#000000;stroke-width:1.80000005;stroke-linecap:butt;stroke-linejoin:miter;stroke-miterlimit:4;stroke-dasharray:none;stroke-opacity:1;marker-end:url(#Arrow2Mend-3-7-5)"
       d="M 80.489655,615.03226 44.880485,596.75548"
       id="path76918-2" /><path
       style="fill:none;stroke:#000000;stroke-width:1.80000005;stroke-linecap:butt;stroke-linejoin:miter;stroke-miterlimit:4;stroke-dasharray:none;stroke-opacity:1;marker-end:url(#Arrow2Mend-3-7-9)"
       d="M 175.45167,617.72125 C 153.1286,581.27367 99.735158,586.49793 49.661719,587.26937"
       id="path76918-3"
       sodipodi:nodetypes="cc" /><path
       style="fill:none;stroke:#000000;stroke-width:1.8;stroke-linecap:butt;stroke-linejoin:miter;stroke-miterlimit:4;stroke-dasharray:none;stroke-opacity:1;marker-end:url(#Arrow2Mend-3-7-51)"
       d="m 49.725631,475.49304 -0.418878,23.61054"
       id="path76918-4" /><path
       style="fill:none;stroke:#000000;stroke-width:1.80000005;stroke-linecap:butt;stroke-linejoin:miter;stroke-miterlimit:4;stroke-dasharray:none;stroke-opacity:1;marker-end:url(#Arrow2Mend-3-7-31)"
       d="m 141.80542,453.8706 40.26891,0.89574"
       id="path76918-9" /><path
       style="fill:none;stroke:#000000;stroke-width:1.80000005;stroke-linecap:butt;stroke-linejoin:miter;stroke-miterlimit:4;stroke-dasharray:none;stroke-opacity:1;marker-end:url(#Arrow2Mend-3-7-4)"
       d="m 279.7692,462.95508 -48.89326,-4.41825"
       id="path76918-26" /><path
       style="fill:none;stroke:#000000;stroke-width:1.80000005;stroke-linecap:butt;stroke-linejoin:miter;stroke-miterlimit:4;stroke-dasharray:none;stroke-opacity:1;marker-end:url(#Arrow2Mend-3-7-41)"
       d="m 314.93315,570.09645 -7.68159,25.22495"
       id="path76918-8" /></g></svg>
